<svg width="32" height="32" viewBox="0 0 32 32" fill="none" xmlns="http://www.w3.org/2000/svg">
<path d="M16 32C24.8366 32 32 24.8366 32 16C32 7.16344 24.8366 0 16 0C7.16344 0 0 7.16344 0 16C0 24.8366 7.16344 32 16 32Z" fill="#0A3E54"/>
<path fill-rule="evenodd" clip-rule="evenodd" d="M15.8839 18.5167C15.8979 19.0387 15.8048 19.5581 15.6101 20.0443C15.4154 20.5306 15.123 20.9738 14.7502 21.3478C14.3774 21.7219 13.9317 22.0191 13.4394 22.2221C12.9471 22.4251 12.4182 22.5297 11.8839 22.5297C11.3496 22.5297 10.8207 22.4251 10.3284 22.2221C9.83608 22.0191 9.39037 21.7219 9.01755 21.3478C8.64472 20.9738 8.35233 20.5306 8.15762 20.0443C7.96292 19.5581 7.86984 19.0387 7.88388 18.5167C7.89568 19.5655 7.4808 20.5759 6.73046 21.3259C5.98012 22.0758 4.95573 22.5039 3.8825 22.516C3.30083 22.5145 2.7267 22.3874 2.2012 22.1437C1.6757 21.9 1.21181 21.5458 0.842773 21.1064C1.58516 23.3179 2.81097 25.3451 4.43517 27.0474H27.6006C29.3672 25.1929 30.6597 22.9563 31.3727 20.5204C31.0278 21.1245 30.5245 21.6278 29.9144 21.9786C29.3044 22.3293 28.6097 22.5149 27.9018 22.516C26.8286 22.5039 25.8042 22.0758 25.0539 21.3259C24.3035 20.5759 23.8887 19.5655 23.9005 18.5167C23.9005 19.5552 23.4783 20.5512 22.7269 21.2855C21.9754 22.0198 20.9563 22.4323 19.8936 22.4323C18.8309 22.4323 17.8117 22.0198 17.0602 21.2855C16.3088 20.5512 15.8866 19.5552 15.8866 18.5167H15.8839Z" fill="#046887"/>
<path fill-rule="evenodd" clip-rule="evenodd" d="M18.5368 19.8535C18.5368 20.892 18.1146 21.888 17.3632 22.6223C16.6118 23.3566 15.5926 23.7691 14.5299 23.7691C13.4672 23.7691 12.448 23.3566 11.6966 22.6223C10.9451 21.888 10.523 20.892 10.523 19.8535C10.523 20.892 10.1008 21.888 9.34938 22.6223C8.59794 23.3566 7.57877 23.7691 6.51607 23.7691C5.45337 23.7691 4.43421 23.3566 3.68277 22.6223C2.93133 21.888 2.50916 20.892 2.50916 19.8535C2.51235 20.8772 2.11721 21.8638 1.40381 22.6134C2.41482 24.8395 3.93163 26.8112 5.83905 28.3788H26.1195C27.6807 27.1032 28.9852 25.5547 29.9662 23.8124C29.004 23.6624 28.1287 23.1802 27.4995 22.4533C26.8702 21.7263 26.5286 20.8029 26.5368 19.8508C26.5508 20.3728 26.4578 20.8922 26.2631 21.3785C26.0684 21.8647 25.776 22.3079 25.4031 22.6819C25.0303 23.056 24.5846 23.3533 24.0923 23.5562C23.6 23.7592 23.0711 23.8638 22.5368 23.8638C22.0025 23.8638 21.4736 23.7592 20.9813 23.5562C20.489 23.3533 20.0433 23.056 19.6705 22.6819C19.2976 22.3079 19.0053 21.8647 18.8105 21.3785C18.6158 20.8922 18.5228 20.3728 18.5368 19.8508V19.8535Z" fill="#0793BD"/>
<path fill-rule="evenodd" clip-rule="evenodd" d="M29.8998 23.9339C29.322 23.2176 29.0085 22.3318 29.01 21.4198C29.01 22.4583 28.5878 23.4542 27.8364 24.1885C27.0849 24.9229 26.0657 25.3354 25.003 25.3354C23.9403 25.3354 22.9212 24.9229 22.1697 24.1885C21.4183 23.4542 20.9961 22.4583 20.9961 21.4198C20.9961 22.4583 20.574 23.4542 19.8225 24.1885C19.0711 24.9229 18.0519 25.3354 16.9892 25.3354C15.9265 25.3354 14.9074 24.9229 14.1559 24.1885C13.4045 23.4542 12.9823 22.4583 12.9823 21.4198C12.9823 22.4583 12.5602 23.4542 11.8087 24.1885C11.0573 24.9229 10.0381 25.3354 8.97541 25.3354C7.91271 25.3354 6.89354 24.9229 6.14209 24.1885C5.39065 23.4542 4.9685 22.4583 4.9685 21.4198C4.97254 22.1603 4.76656 22.8874 4.37339 23.5204C3.98023 24.1535 3.41527 24.6677 2.74121 25.006C4.23919 27.2424 6.30512 29.0609 8.73722 30.2839C11.1693 31.5069 13.8844 32.0926 16.6174 31.9838C19.3504 31.875 22.0077 31.0753 24.3299 29.663C26.6521 28.2506 28.5598 26.2739 29.8666 23.9258L29.8998 23.9339Z" fill="#00ACED"/>
<path fill-rule="evenodd" clip-rule="evenodd" d="M16.9397 21.5494C16.7855 21.3627 16.7117 21.1248 16.7338 20.8859C16.756 20.647 16.8725 20.4259 17.0585 20.2694C17.1496 20.1931 17.2554 20.1354 17.3698 20.1C17.4841 20.0646 17.6046 20.052 17.724 20.0631C17.8435 20.0742 17.9594 20.1087 18.0649 20.1646C18.1704 20.2204 18.2632 20.2965 18.3379 20.3882C20.5486 23.067 22.0243 24.2471 23.3756 24.0797C24.8043 23.8987 26.4291 22.2866 28.8775 19.3998C28.9534 19.3094 29.0472 19.2348 29.1531 19.1804C29.2591 19.126 29.3752 19.0929 29.4944 19.083C29.6137 19.0732 29.7338 19.0869 29.8476 19.1232C29.9614 19.1595 30.0666 19.2178 30.1569 19.2945C30.3409 19.4529 30.4547 19.6749 30.4743 19.9138C30.4939 20.1526 30.4178 20.3895 30.2619 20.5745C27.5151 23.815 25.6139 25.6297 23.5967 25.8809C21.502 26.1455 19.6119 24.7548 16.9397 21.5494Z" fill="#FEBD93"/>
<path fill-rule="evenodd" clip-rule="evenodd" d="M12.0952 29.1916C12.1542 29.0648 12.2383 28.9508 12.3426 28.856C12.4469 28.7613 12.5694 28.6876 12.7031 28.6394C12.8367 28.5912 12.9788 28.5693 13.1211 28.5751C13.2634 28.5809 13.4031 28.6142 13.5322 28.6731C13.7956 28.7991 13.9981 29.0207 14.0967 29.2906C14.1953 29.5604 14.1821 29.8573 14.06 30.1178C14.06 30.1178 13.9163 30.4445 13.2725 31.7786C12.5381 31.649 11.8141 31.4685 11.106 31.2385C11.9377 29.5561 12.0952 29.197 12.0952 29.1916Z" fill="#FEBD93"/>
<path fill-rule="evenodd" clip-rule="evenodd" d="M11.4734 28.8054C11.5678 28.5895 11.7055 28.3943 11.8782 28.2312C12.051 28.0681 12.2554 27.9404 12.4794 27.8556C12.7034 27.7708 12.9425 27.7306 13.1826 27.7374C13.4227 27.7443 13.659 27.798 13.8776 27.8953C14.3202 28.1006 14.6631 28.467 14.833 28.9161C15.0029 29.3652 14.9863 29.8614 14.7867 30.2987C14.7867 30.2987 14.6486 30.6147 14.0351 31.8812C12.7996 31.7295 11.587 31.434 10.4233 31.0008C11.1943 29.4103 11.4734 28.8054 11.4734 28.8054Z" fill="#026C8C"/>
<path fill-rule="evenodd" clip-rule="evenodd" d="M15.7431 11.601H18.4208C18.7047 11.6052 18.9754 11.7188 19.1741 11.917C19.3728 12.1152 19.4834 12.3821 19.4819 12.6595V16.9991C19.4863 17.479 19.2961 17.9411 18.9527 18.2842C18.6093 18.6273 18.1409 18.8236 17.6498 18.83H16.7545C16.023 18.8207 15.3251 18.5284 14.8139 18.0172C14.3026 17.5059 14.0196 16.8174 14.027 16.1026V13.3157C14.0233 12.8664 14.2017 12.4338 14.5232 12.1126C14.8447 11.7913 15.2833 11.6074 15.7431 11.601Z" fill="#FEBD93"/>
<path fill-rule="evenodd" clip-rule="evenodd" d="M19.1999 13.0107L15.4417 14.5526L15.7705 13.8019L14.8641 14.6876L14.632 15.9406L13.6234 15.1305L13.2061 13.1619L12.4545 12.7406L12.8192 12.5867L11.8354 11.9899L12.7418 11.9116L11.9709 11.4309C11.9709 11.4309 17.4645 10.7936 18.5063 11.0069C18.8825 11.0823 19.2183 11.2875 19.4522 11.5851C19.6862 11.8826 19.8026 12.2526 19.7802 12.6272C19.7541 13.0201 19.6558 13.4052 19.49 13.7641C19.49 13.7641 19.1833 13.0107 19.1999 13.0107Z" fill="#343333"/>
<path fill-rule="evenodd" clip-rule="evenodd" d="M13.9855 15.0332C14.1328 15.0294 14.278 15.0687 14.4023 15.1461C14.5267 15.2234 14.6246 15.3352 14.6836 15.4672C14.7425 15.5993 14.7598 15.7455 14.7332 15.8872C14.7067 16.0289 14.6374 16.1596 14.5344 16.2626C14.4313 16.3656 14.2992 16.4362 14.1548 16.4654C14.0105 16.4946 13.8605 16.481 13.7241 16.4264C13.5877 16.3718 13.4711 16.2787 13.3891 16.1589C13.3072 16.0392 13.2637 15.8983 13.2642 15.7542C13.2631 15.6606 13.2809 15.5677 13.3166 15.4808C13.3522 15.3939 13.405 15.3147 13.472 15.2477C13.539 15.1808 13.6188 15.1274 13.7069 15.0906C13.795 15.0538 13.8897 15.0343 13.9855 15.0332Z" fill="#FEBD93"/>
<path fill-rule="evenodd" clip-rule="evenodd" d="M17.0166 14.7523C17.0468 14.7527 17.0765 14.7588 17.1042 14.7704C17.1319 14.782 17.157 14.7988 17.178 14.8199C17.1991 14.8409 17.2157 14.8658 17.2269 14.8932C17.238 14.9205 17.2436 14.9497 17.2432 14.9792V15.2492C17.2436 15.2786 17.238 15.3078 17.2269 15.3352C17.2157 15.3625 17.1991 15.3874 17.178 15.4085C17.157 15.4295 17.1319 15.4464 17.1042 15.4579C17.0765 15.4695 17.0468 15.4757 17.0166 15.476C16.9865 15.4757 16.9568 15.4695 16.9291 15.4579C16.9014 15.4464 16.8763 15.4295 16.8553 15.4085C16.8342 15.3874 16.8176 15.3625 16.8065 15.3352C16.7953 15.3078 16.7897 15.2786 16.7901 15.2492V14.9792C16.7897 14.9497 16.7953 14.9205 16.8065 14.8932C16.8176 14.8658 16.8342 14.8409 16.8553 14.8199C16.8763 14.7988 16.9014 14.782 16.9291 14.7704C16.9568 14.7588 16.9865 14.7527 17.0166 14.7523Z" fill="#343333"/>
<path fill-rule="evenodd" clip-rule="evenodd" d="M19.1031 14.7523C19.1332 14.7527 19.163 14.7588 19.1906 14.7704C19.2183 14.782 19.2434 14.7988 19.2645 14.8199C19.2855 14.8409 19.3021 14.8658 19.3133 14.8932C19.3245 14.9205 19.33 14.9497 19.3297 14.9792V15.2492C19.33 15.2786 19.3245 15.3078 19.3133 15.3352C19.3021 15.3625 19.2855 15.3874 19.2645 15.4085C19.2434 15.4295 19.2183 15.4464 19.1906 15.4579C19.163 15.4695 19.1332 15.4757 19.1031 15.476C19.073 15.4757 19.0432 15.4695 19.0155 15.4579C18.9878 15.4464 18.9627 15.4295 18.9417 15.4085C18.9207 15.3874 18.9041 15.3625 18.8929 15.3352C18.8817 15.3078 18.8761 15.2786 18.8765 15.2492V14.9792C18.8761 14.9497 18.8817 14.9205 18.8929 14.8932C18.9041 14.8658 18.9207 14.8409 18.9417 14.8199C18.9627 14.7988 18.9878 14.782 19.0155 14.7704C19.0432 14.7588 19.073 14.7527 19.1031 14.7523Z" fill="#343333"/>
<path fill-rule="evenodd" clip-rule="evenodd" d="M18.5371 16.3483C18.5371 16.301 18.5563 16.2557 18.5905 16.2222C18.6247 16.1888 18.6711 16.17 18.7194 16.17C18.7678 16.17 18.8142 16.1888 18.8484 16.2222C18.8826 16.2557 18.9018 16.301 18.9018 16.3483C18.9022 16.5316 18.8388 16.7096 18.7222 16.8533C18.6679 16.9237 18.5975 16.9809 18.5167 17.0202C18.4359 17.0596 18.3469 17.0801 18.2566 17.0801C18.1663 17.0801 18.0772 17.0596 17.9964 17.0202C17.9156 16.9809 17.8453 16.9237 17.7909 16.8533C17.6743 16.7096 17.611 16.5316 17.6113 16.3483C17.6113 16.301 17.6305 16.2557 17.6647 16.2222C17.6989 16.1888 17.7453 16.17 17.7937 16.17C17.8421 16.17 17.8885 16.1888 17.9227 16.2222C17.9569 16.2557 17.9761 16.301 17.9761 16.3483C17.9751 16.4457 18.0072 16.5406 18.0673 16.6183C18.0891 16.6473 18.1176 16.6709 18.1505 16.6872C18.1834 16.7035 18.2197 16.7119 18.2566 16.7119C18.2934 16.7119 18.3298 16.7035 18.3627 16.6872C18.3955 16.6709 18.424 16.6473 18.4459 16.6183C18.506 16.5406 18.5381 16.4457 18.5371 16.3483Z" fill="#343333"/>
<path fill-rule="evenodd" clip-rule="evenodd" d="M14.0573 18.8327L11.1723 18.7517C11.1723 18.7517 9.91771 25.5379 9.84034 28.1222C9.80165 29.4724 10.2244 30.4985 10.9263 31.179C12.2471 31.6208 13.6227 31.8869 15.0162 31.9703C16.1574 31.5517 16.9505 30.3932 17.2821 27.6496C17.7464 23.7556 18.4013 20.0533 18.4013 20.0533L16.0966 19.0677L14.0573 18.8327Z" fill="#343333"/>
<path fill-rule="evenodd" clip-rule="evenodd" d="M14.4359 17.5203L13.9855 19.0811C13.9528 19.2004 13.9456 19.325 13.9642 19.4471C13.9828 19.5693 14.0269 19.6864 14.0938 19.7912C14.1606 19.896 14.2488 19.9863 14.3528 20.0565C14.4568 20.1266 14.5744 20.1752 14.6984 20.1991C15.6435 20.4097 15.895 19.7373 16.011 19.389C16.08 19.1853 16.1282 18.9754 16.1547 18.7625L14.4359 17.5203Z" fill="#FEBD93"/>
<path fill-rule="evenodd" clip-rule="evenodd" d="M12.029 18.9002C12.268 18.9497 12.4775 19.0889 12.6124 19.288C12.7474 19.487 12.7969 19.7299 12.7502 19.9642C12.7299 20.0804 12.6862 20.1915 12.6215 20.2911C12.5568 20.3906 12.4725 20.4765 12.3734 20.5439C12.2744 20.6112 12.1627 20.6587 12.0447 20.6834C11.9267 20.7081 11.8049 20.7097 11.6863 20.6879C8.28183 20.0317 6.38892 20.0317 5.45213 21.0309C4.58166 21.9463 4.29703 23.8096 4.20032 26.8044C3.57431 26.1227 3.01029 25.389 2.51465 24.6116C2.7219 22.3514 3.17233 20.7932 4.13675 19.7779C5.5903 18.244 7.9447 18.109 12.029 18.9002Z" fill="#FEBD93"/>
<path fill-rule="evenodd" clip-rule="evenodd" d="M9.84034 28.133C9.80165 29.4832 10.2244 30.5093 10.9263 31.1898C12.2471 31.6319 13.6227 31.898 15.0162 31.9811C15.9695 31.63 16.6742 30.7659 17.0859 28.8945L9.84863 27.9736C9.84586 28.0195 9.8431 28.0708 9.84034 28.133Z" fill="#66BA46"/>
<path fill-rule="evenodd" clip-rule="evenodd" d="M14.3808 31.1548C14.2473 31.2078 14.1042 31.2342 13.9601 31.2324C13.816 31.2306 13.6737 31.2006 13.5416 31.1443C13.4094 31.0879 13.2902 31.0063 13.1909 30.9042C13.0916 30.8021 13.0142 30.6816 12.9632 30.5499C12.8546 30.2838 12.8568 29.9868 12.9694 29.7224C13.082 29.458 13.296 29.2471 13.5656 29.1348C13.5656 29.1348 14.4361 28.7622 19.4129 26.8881C22.016 25.9105 24.0803 27.1149 25.5919 28.8108C25.0106 29.2443 24.4003 29.6394 23.7653 29.9936C22.7843 29.0025 21.5739 28.403 20.1729 28.9296C15.1905 30.8091 14.3863 31.1521 14.3808 31.1548Z" fill="#FEBD93"/>
<path fill-rule="evenodd" clip-rule="evenodd" d="M14.5683 31.8622C14.5131 31.8838 14.4578 31.9054 14.4025 31.9216C13.8803 31.8703 13.3607 31.792 12.855 31.6921C12.5578 31.4911 12.3272 31.2095 12.1918 30.882C12.0054 30.4391 12.0037 29.9426 12.187 29.4985C12.3704 29.0545 12.7242 28.6981 13.1728 28.5056C13.1728 28.5056 14.0544 28.1302 18.998 26.2697L20.3797 29.629C16.0191 31.2762 14.5711 31.8622 14.5683 31.8622Z" fill="#66BA46"/>
<path fill-rule="evenodd" clip-rule="evenodd" d="M19.0368 28.4246C19.0595 28.4164 19.0836 28.4128 19.1077 28.4138C19.1318 28.4148 19.1555 28.4205 19.1774 28.4306C19.1992 28.4406 19.2188 28.4548 19.235 28.4723C19.2512 28.4898 19.2637 28.5103 19.2717 28.5326C19.2879 28.5777 19.2853 28.6273 19.2647 28.6706C19.2441 28.714 19.2069 28.7478 19.1612 28.7648L12.6838 31.1169C12.6613 31.125 12.6374 31.1286 12.6135 31.1275C12.5895 31.1265 12.5661 31.1207 12.5444 31.1107C12.5228 31.1006 12.5035 31.0864 12.4875 31.0689C12.4716 31.0514 12.4594 31.031 12.4517 31.0089C12.4352 30.9637 12.4373 30.914 12.4573 30.8703C12.4774 30.8265 12.514 30.792 12.5594 30.7739L19.0368 28.4246ZM18.7301 27.6144L12.2527 29.9665C12.207 29.9835 12.17 30.0174 12.1498 30.0609C12.1296 30.1044 12.1279 30.154 12.1449 30.1987C12.1527 30.2209 12.1649 30.2413 12.1808 30.2588C12.1967 30.2763 12.2161 30.2905 12.2377 30.3005C12.2593 30.3106 12.2828 30.3163 12.3067 30.3174C12.3307 30.3185 12.3546 30.3148 12.3771 30.3068L18.8544 27.9547C18.9001 27.9377 18.9371 27.9038 18.9573 27.8603C18.9775 27.8168 18.9792 27.7672 18.9622 27.7225C18.9449 27.6792 18.9108 27.6443 18.8673 27.6256C18.8238 27.6069 18.7744 27.6058 18.7301 27.6225V27.6144Z" fill="white"/>
<path d="M13.1543 21.969L13.9841 22.0304C13.9841 22.0304 14.2038 22.0606 14.3537 22.522C14.5035 22.9834 14.604 23.1313 14.9421 23.1589C14.6969 23.5628 14.4129 24.1161 14.4129 24.1161C14.3868 24.1402 14.3558 24.1582 14.3219 24.1689C14.2881 24.1796 14.2523 24.1827 14.2171 24.178C14.1512 24.1721 14.0888 24.1457 14.0388 24.1023L13.1543 21.969Z" fill="white"/>
<path d="M15.0113 23.0502C15.2909 23.0709 15.5343 22.861 15.555 22.5815C15.5756 22.3019 15.3658 22.0585 15.0863 22.0378C14.8067 22.0171 14.5633 22.227 14.5426 22.5065C14.5219 22.7861 14.7318 23.0295 15.0113 23.0502Z" fill="white"/>
<path d="M11.4757 24.6023L11.6997 24.0754L11.8703 24.088L11.5766 24.7445L11.3405 24.727L11.1476 24.0345L11.3172 24.0471L11.4612 24.6013L11.4757 24.6023ZM12.0959 24.2297C12.2606 24.2419 12.391 24.3397 12.377 24.5276C12.363 24.7174 12.2199 24.7921 12.0551 24.7799C11.8913 24.7678 11.761 24.67 11.7748 24.483C11.7886 24.2971 11.9321 24.2176 12.0959 24.2297ZM12.065 24.6469C12.1575 24.6538 12.2263 24.6143 12.2335 24.517C12.2409 24.4168 12.1784 24.3705 12.0859 24.3637C11.9944 24.3569 11.926 24.3915 11.9184 24.4937C11.9109 24.5948 11.9734 24.6402 12.065 24.6469ZM12.5483 24.8164L12.4028 24.8056L12.4541 24.1129L12.5996 24.1236L12.5483 24.8164ZM13.0625 24.311L13.2089 24.3218L13.1689 24.8624L13.0225 24.8515L13.0283 24.7725L13.0216 24.772C12.9833 24.8176 12.9319 24.8448 12.8346 24.8376C12.6062 24.8207 12.6146 24.6295 12.6204 24.5505L12.6404 24.2797L12.7859 24.2905L12.7659 24.5612C12.7628 24.6036 12.7456 24.7051 12.8862 24.7155C13.0125 24.7248 13.0377 24.6453 13.0432 24.5721L13.0625 24.311ZM13.5958 24.3504C13.8242 24.3673 13.8158 24.5595 13.8099 24.6385L13.79 24.9083L13.6445 24.8976L13.6644 24.6278C13.6676 24.5854 13.6838 24.4839 13.5441 24.4735C13.4169 24.4641 13.3926 24.5437 13.3872 24.6169L13.3679 24.8771L13.2215 24.8662L13.2615 24.3257L13.4079 24.3365L13.402 24.4165L13.4088 24.417C13.447 24.3714 13.4985 24.3432 13.5958 24.3504ZM14.059 24.5107L14.0449 24.7024L14.044 24.714C14.0382 24.792 14.0737 24.784 14.2149 24.7867L14.2044 24.9293C14.2044 24.9293 14.1748 24.9368 14.0283 24.926C13.8809 24.9151 13.8898 24.7946 13.8956 24.7166L13.9116 24.4998L13.8403 24.4945L13.8495 24.3712L13.9208 24.3764L13.9323 24.2203L14.0797 24.2312L14.0682 24.3873L14.2435 24.4003L14.2344 24.5237L14.059 24.5107ZM14.8097 24.7464L14.378 24.7145C14.3833 24.7875 14.424 24.8264 14.5184 24.8334C14.6061 24.8399 14.6512 24.819 14.6674 24.7844L14.809 24.7948C14.7859 24.9104 14.6862 24.9747 14.5089 24.9615C14.3239 24.9479 14.2257 24.8476 14.2391 24.6674C14.2521 24.4911 14.3672 24.4027 14.5493 24.4162C14.6254 24.4218 14.6857 24.4456 14.7286 24.4808L14.7287 24.4798C14.8275 24.5588 14.8287 24.6732 14.8155 24.7469L14.8097 24.7464ZM14.5398 24.5443C14.4589 24.5383 14.4123 24.5649 14.3909 24.6186L14.6761 24.6397C14.6676 24.5984 14.6439 24.552 14.5398 24.5443ZM15.4336 24.7926L15.0019 24.7607C15.0071 24.8337 15.0479 24.8726 15.1423 24.8796C15.23 24.8861 15.2751 24.8652 15.2912 24.8305L15.4329 24.841C15.4098 24.9565 15.3101 25.0208 15.1328 25.0077C14.9478 24.994 14.8496 24.8938 14.863 24.7136C14.876 24.5372 14.9911 24.4489 15.1732 24.4624C15.2493 24.468 15.3095 24.4918 15.3525 24.527L15.3525 24.526C15.4513 24.605 15.4525 24.7194 15.4393 24.7931L15.4336 24.7926ZM15.1637 24.5905C15.0827 24.5845 15.0362 24.6111 15.0148 24.6647L15.3 24.6859C15.2914 24.6445 15.2677 24.5982 15.1637 24.5905ZM15.8179 24.5149C15.8564 24.5178 15.8876 24.5288 15.9122 24.5364L15.8789 24.6725C15.8657 24.6677 15.8287 24.6572 15.7824 24.6537C15.6735 24.6457 15.6355 24.7281 15.6301 24.8014L15.6121 25.0432L15.4657 25.0324L15.5057 24.4918L15.6522 24.5027L15.6462 24.5826L15.6549 24.5833C15.6896 24.5335 15.7244 24.508 15.8179 24.5149ZM16.0393 25.0748L15.8938 25.0641L15.9336 24.5274L16.0791 24.5381L16.0393 25.0748ZM16.0819 24.4996L15.9364 24.4888L15.9461 24.3578L16.0916 24.3685L16.0819 24.4996ZM16.4658 24.5629C16.6942 24.5798 16.6858 24.772 16.6799 24.851L16.6599 25.1208L16.5144 25.11L16.5344 24.8402C16.5375 24.7978 16.5538 24.6963 16.4141 24.686C16.2869 24.6766 16.2626 24.7561 16.2572 24.8294L16.2379 25.0895L16.0914 25.0787L16.1314 24.5381L16.2779 24.549L16.272 24.629L16.2787 24.6294C16.317 24.5838 16.3685 24.5557 16.4658 24.5629ZM16.7982 25.131C16.751 25.1275 16.7153 25.0861 16.7188 25.0389C16.7224 24.9907 16.7638 24.955 16.811 24.9585C16.8592 24.9621 16.8949 25.0035 16.8913 25.0517C16.8878 25.0989 16.8464 25.1346 16.7982 25.131Z" fill="white"/>
<path fill-rule="evenodd" clip-rule="evenodd" d="M26.5338 11.8304L26.3237 11.8925L26.4813 12.8593C26.5393 13.1942 26.6001 13.5047 26.6443 13.8423L25.5389 12.2571C25.16 12.3902 24.7908 12.5481 24.4336 12.7297C24.5174 13.1142 24.6235 13.4938 24.7514 13.8666C25.0858 15.0088 25.0277 15.3005 25.9148 15.9918C26.111 16.143 26.3155 16.2834 26.5172 16.432C26.7189 16.5805 26.9068 16.7641 27.103 16.8991L27.932 16.675L27.9514 16.6426C27.8792 16.4453 27.8184 16.2443 27.769 16.0404L26.589 11.9898C26.5842 11.933 26.5652 11.8783 26.5338 11.8304Z" fill="#F9E058"/>
<path fill-rule="evenodd" clip-rule="evenodd" d="M28.1368 17.2341H28.0981H28.0621L28.0207 17.2476L27.9792 17.2638H27.9378H27.8936H27.8521L27.8107 17.2773H27.7665L27.725 17.2908H27.6836L27.6421 17.3043H27.6007L27.5592 17.3178L27.515 17.3313H27.4736H27.4321L27.3879 17.3448H27.3464H27.305L27.2773 17.3745C27.3193 17.5571 27.371 17.7373 27.4321 17.9146C27.4644 18.1126 27.5317 18.3036 27.6311 18.479C27.7499 18.3845 27.8024 18.0578 27.8549 17.8903L27.9406 17.6203C28.1202 17.7607 28.3109 18.2198 28.438 18.2522C28.496 18.209 28.4739 18.2522 28.4684 18.1847C28.4186 18.1847 28.4684 18.2117 28.4297 18.1469L28.1368 17.2341Z" fill="#F9E058"/>
<path fill-rule="evenodd" clip-rule="evenodd" d="M26.5342 11.8305C26.5683 11.875 26.5911 11.9268 26.6005 11.9817L27.7805 16.0323C27.8298 16.2362 27.8907 16.4372 27.9629 16.6345C28.2143 16.6048 28.5376 16.432 28.7919 16.4158C28.8278 15.8244 29.7038 14.6389 29.5186 13.7153C29.4689 13.4723 28.9107 11.5307 28.8416 11.4281L27.8413 11.5928H27.8192L27.7777 11.6117C27.7777 11.8413 27.9794 12.5974 27.9711 12.8134L27.1615 11.6576C26.9449 11.6852 26.7336 11.7434 26.5342 11.8305Z" fill="#F9EB99"/>
<path fill-rule="evenodd" clip-rule="evenodd" d="M28.9353 17.0046C28.7953 17.0229 28.658 17.0573 28.5264 17.1073C28.3937 17.141 28.2635 17.1834 28.1367 17.2342L28.4296 18.2684C28.4656 18.3332 28.4296 18.2954 28.4683 18.3062L28.5125 17.5852L28.7502 17.7878C28.8317 17.8438 28.9093 17.9051 28.9823 17.9714C29.0707 18.0497 29.1398 18.1334 29.2448 18.1307C29.1743 17.7475 29.0708 17.3708 28.9353 17.0046Z" fill="#F9EB99"/>
<path fill-rule="evenodd" clip-rule="evenodd" d="M28.7503 17.7877L28.5127 17.5852L28.4685 18.3062C28.4685 18.371 28.4961 18.3305 28.4381 18.3737C28.3109 18.3413 28.1203 17.8822 27.9407 17.7418L27.855 18.0119C27.9821 18.3872 28.1783 19.2595 28.2805 19.6591L28.7227 21.3334C28.7557 21.5206 28.8152 21.7023 28.8995 21.8735C28.96 21.9705 29.0503 22.0465 29.1575 22.0905C29.2647 22.1345 29.3834 22.1443 29.4967 22.1186C29.61 22.0929 29.712 22.0329 29.7884 21.9472C29.8648 21.8615 29.9115 21.7544 29.922 21.6412C29.9524 21.436 29.5379 20.2451 29.4467 19.9805C29.3831 19.7995 29.3389 19.6186 29.2754 19.4404C29.1869 19.1974 28.7641 17.9552 28.7503 17.7877Z" fill="#83462D"/>
<path fill-rule="evenodd" clip-rule="evenodd" d="M27.9433 16.675L27.1143 16.8992L27.2718 17.4393H27.316H27.3574H27.3989L27.4431 17.4258H27.4846H27.526L27.5702 17.4123L27.6117 17.3988H27.6531L27.6946 17.3853H27.736L27.7775 17.3718H27.8217L27.8631 17.3583H27.9046H27.9488H27.9903L28.0317 17.3421L28.0732 17.3285H28.1091C28.1102 17.2357 28.0914 17.1437 28.0538 17.0585C28.0488 16.9239 28.0109 16.7924 27.9433 16.675Z" fill="#F85654"/>
<path fill-rule="evenodd" clip-rule="evenodd" d="M28.7887 16.424C28.5373 16.4402 28.2139 16.613 27.9597 16.6427L27.9404 16.6751C27.989 16.7589 28.0227 16.8502 28.0398 16.9451C28.0774 17.0304 28.0963 17.1224 28.0951 17.2152H28.0592L28.0177 17.2287L27.9763 17.2449H27.9348H27.8906H27.8492L27.8077 17.2584H27.7635L27.7221 17.2719H27.6806L27.6392 17.2854H27.5977L27.5563 17.2989L27.512 17.3124H27.4706H27.4291L27.3849 17.3259H27.3435H27.302H27.2578L27.2744 17.3664L27.302 17.3367H27.3435H27.3849L27.4291 17.3232H27.4706H27.512L27.5563 17.3097L27.5977 17.2962H27.6392L27.6806 17.2827H27.7221L27.7635 17.2692H27.8077L27.8492 17.2557H27.8906H27.9348H27.9763L28.0177 17.2395L28.0592 17.226H28.0951H28.1338C28.2606 17.1752 28.3908 17.1328 28.5234 17.0991C28.6551 17.0491 28.7924 17.0147 28.9324 16.9964L28.7887 16.424Z" fill="#F59191"/>
</svg>
