<svg width="32" height="32" viewBox="0 0 32 32" fill="none" xmlns="http://www.w3.org/2000/svg">
<path d="M16 31.9996C24.8366 31.9996 32 24.8362 32 15.9998C32 7.16335 24.8366 0 16 0C7.16344 0 0 7.16335 0 15.9998C0 24.8362 7.16344 31.9996 16 31.9996Z" fill="#0A3E54"/>
<path fill-rule="evenodd" clip-rule="evenodd" d="M10.5562 31.0491H21.4467C24.2268 30.0352 26.6644 28.2871 28.4878 25.9993C28.3828 25.9993 28.275 25.9993 28.1672 25.9993C27.5686 25.9997 26.9757 25.8848 26.4225 25.6611C25.8694 25.4375 25.3667 25.1096 24.9433 24.696C24.5198 24.2825 24.1839 23.7915 23.9548 23.2511C23.7256 22.7106 23.6076 22.1314 23.6076 21.5464C23.6076 22.7281 23.1272 23.8614 22.2722 24.697C21.4171 25.5326 20.2573 26.002 19.048 26.002C17.8388 26.002 16.679 25.5326 15.8239 24.697C14.9688 23.8614 14.4885 22.7281 14.4885 21.5464C14.4885 22.7281 14.0081 23.8614 13.153 24.697C12.2979 25.5326 11.1381 26.002 9.92887 26.002C8.71959 26.002 7.55984 25.5326 6.70475 24.697C5.84966 23.8614 5.36928 22.7281 5.36928 21.5464C5.3693 22.3326 5.15634 23.1047 4.75203 23.7844C4.34772 24.464 3.76648 25.027 3.06738 25.416C4.93004 27.9842 7.53896 29.9466 10.5562 31.0491Z" fill="#046887"/>
<path fill-rule="evenodd" clip-rule="evenodd" d="M15.5135 31.9915H16.4917C18.8629 31.9145 21.1861 31.3187 23.2904 30.248C25.3947 29.1774 27.2264 27.659 28.6506 25.8049C28.178 25.3877 27.8002 24.8781 27.5417 24.3092C27.2832 23.7403 27.1498 23.1248 27.1501 22.5023C27.1501 23.684 26.6697 24.8173 25.8147 25.6529C24.9596 26.4885 23.7998 26.958 22.5905 26.958C21.3813 26.958 20.2215 26.4885 19.3664 25.6529C18.5113 24.8173 18.031 23.684 18.031 22.5023C18.031 23.684 17.5506 24.8173 16.6955 25.6529C15.8404 26.4885 14.6806 26.958 13.4714 26.958C12.2621 26.958 11.1023 26.4885 10.2472 25.6529C9.39216 24.8173 8.91178 23.684 8.91178 22.5023C8.91178 23.0873 8.79382 23.6666 8.56464 24.207C8.33547 24.7474 7.99957 25.2384 7.57614 25.652C7.15271 26.0655 6.65004 26.3935 6.09686 26.6171C5.54368 26.8407 4.95084 26.9556 4.35219 26.9553H4.33838C5.76166 28.4825 7.48406 29.7151 9.40359 30.5802C11.3231 31.4453 13.4008 31.9252 15.5135 31.9915Z" fill="#0793BD"/>
<path fill-rule="evenodd" clip-rule="evenodd" d="M26.4706 28.1002C26.2953 28.1196 26.1191 28.1295 25.9428 28.1299C25.3441 28.1303 24.7513 28.0154 24.1981 27.7918C23.6449 27.5681 23.1423 27.2402 22.7188 26.8267C22.2954 26.4131 21.9595 25.9221 21.7303 25.3817C21.5011 24.8413 21.3832 24.262 21.3832 23.677C21.3832 24.8587 20.9028 25.992 20.0477 26.8276C19.1926 27.6632 18.0329 28.1326 16.8236 28.1326C15.6143 28.1326 14.4546 27.6632 13.5995 26.8276C12.7444 25.992 12.264 24.8587 12.264 23.677C12.264 24.8587 11.7836 25.992 10.9285 26.8276C10.0735 27.6632 8.91371 28.1326 7.70443 28.1326C6.49516 28.1326 5.33541 27.6632 4.48032 26.8276C3.62523 25.992 3.14485 24.8587 3.14485 23.677C3.14469 24.1857 3.05591 24.6907 2.88232 25.1703C4.13613 26.9987 5.7763 28.5433 7.69238 29.7002C9.60845 30.8571 11.756 31.5993 13.9903 31.8769C16.2246 32.1546 18.4938 31.9611 20.6452 31.3097C22.7966 30.6582 24.7801 29.5638 26.4623 28.1002H26.4706Z" fill="#00ACED"/>
<path fill-rule="evenodd" clip-rule="evenodd" d="M15.0855 13.1725C15.1105 12.956 15.2216 12.7579 15.3948 12.6208C15.5681 12.4837 15.7896 12.4188 16.0115 12.4401C16.2334 12.4614 16.4377 12.5672 16.5804 12.7346C16.7231 12.9019 16.7926 13.1175 16.774 13.3346C16.4479 16.4913 15.7985 17.8091 16.7933 18.576C17.8489 19.3861 18.2938 18.8838 21.8089 18.6246C22.0286 18.6148 22.2435 18.689 22.4082 18.8315C22.5728 18.974 22.6741 19.1736 22.6907 19.3879C22.7072 19.6022 22.6376 19.8144 22.4967 19.9794C22.3558 20.1445 22.1547 20.2493 21.936 20.2718C17.9926 20.5635 16.4092 20.8443 14.917 19.6994C13.3695 18.5085 14.6987 16.945 15.0855 13.1725Z" fill="#BD7A68"/>
<path fill-rule="evenodd" clip-rule="evenodd" d="M12.5015 21.8786C12.4692 21.6175 12.5444 21.3546 12.7105 21.1478C12.8766 20.9409 13.12 20.807 13.3871 20.7755C13.6543 20.7439 13.9233 20.8174 14.135 20.9797C14.3467 21.142 14.4837 21.3799 14.516 21.6409C14.516 21.6409 14.6403 22.4943 15.1211 27.3117C15.2759 28.8753 15.3643 30.4712 15.4141 31.9861C14.7334 31.96 14.055 31.8924 13.383 31.7836C13.3277 30.4118 13.2448 28.9725 13.1066 27.5008C12.6175 22.6671 12.5042 21.884 12.5015 21.8786Z" fill="#BD7A68"/>
<path fill-rule="evenodd" clip-rule="evenodd" d="M11.8192 21.8758C11.7901 21.6602 11.8049 21.4411 11.8625 21.2311C11.9201 21.021 12.0195 20.8241 12.155 20.6516C12.2904 20.4791 12.4594 20.3343 12.6521 20.2256C12.8448 20.1169 13.0576 20.0463 13.2782 20.0179C13.4989 19.9896 13.7231 20.0039 13.938 20.0602C14.153 20.1165 14.3545 20.2137 14.531 20.3461C14.7076 20.4785 14.8557 20.6435 14.967 20.8319C15.0782 21.0202 15.1504 21.2281 15.1794 21.4437C15.1794 21.4437 15.301 22.3079 15.7791 27.0956L12.4271 27.5115C11.9988 23.2827 11.8192 21.8785 11.8192 21.8758Z" fill="#4A8A30"/>
<path fill-rule="evenodd" clip-rule="evenodd" d="M13.8611 4.66626H16.3481C16.61 4.66626 16.8612 4.76774 17.0467 4.94845C17.2321 5.12917 17.3367 5.37437 17.3374 5.6303V9.58096C17.3359 10.0231 17.1556 10.4468 16.8356 10.7594C16.5156 11.0721 16.0821 11.2484 15.6296 11.2498H14.8006C14.127 11.2477 13.4816 10.9852 13.0053 10.5198C12.529 10.0544 12.2605 9.42368 12.2583 8.76545V6.22708C12.2598 5.81263 12.4293 5.41564 12.7297 5.12308C13.0301 4.83053 13.4369 4.66626 13.8611 4.66626Z" fill="#FEBD93"/>
<path fill-rule="evenodd" clip-rule="evenodd" d="M17.0779 5.95166L13.5739 7.36667L13.8779 6.68347L13.0351 7.49358L12.8195 8.63585L11.8745 7.88514C11.5981 5.11184 11.4461 4.7851 15.442 4.07219C15.6253 4.04755 15.8113 4.04755 15.9947 4.07219C16.271 4.0884 16.6855 2.79491 16.7076 2.79761C17.6776 2.99204 17.6251 5.11724 17.6251 5.58981C17.5988 5.94909 17.5051 6.30058 17.3487 6.62676C17.3487 6.62676 17.0613 5.95976 17.0779 5.95166Z" fill="#4D4D4D"/>
<path fill-rule="evenodd" clip-rule="evenodd" d="M12.2168 7.79602C12.3505 7.79603 12.4812 7.83489 12.5923 7.90765C12.7033 7.98042 12.7897 8.08381 12.8405 8.20468C12.8913 8.32555 12.9041 8.45844 12.8774 8.58647C12.8507 8.7145 12.7857 8.83188 12.6906 8.9237C12.5954 9.01551 12.4745 9.07762 12.3432 9.10212C12.2118 9.12662 12.076 9.11241 11.953 9.0613C11.8299 9.01018 11.7252 8.92447 11.6521 8.81506C11.579 8.70564 11.5409 8.57746 11.5425 8.44681C11.5447 8.27347 11.6167 8.10795 11.7429 7.98613C11.8691 7.86431 12.0394 7.79601 12.2168 7.79602Z" fill="#FEBD93"/>
<path d="M15.0438 7.54224H15.0411C14.9251 7.54224 14.8311 7.63412 14.8311 7.74747V7.9878C14.8311 8.10115 14.9251 8.19303 15.0411 8.19303H15.0438C15.1598 8.19303 15.2539 8.10115 15.2539 7.9878V7.74747C15.2539 7.63412 15.1598 7.54224 15.0438 7.54224Z" fill="#343333"/>
<path d="M16.9892 7.54224H16.9864C16.8704 7.54224 16.7764 7.63412 16.7764 7.74747V7.9878C16.7764 8.10115 16.8704 8.19303 16.9864 8.19303H16.9892C17.1051 8.19303 17.1992 8.10115 17.1992 7.9878V7.74747C17.1992 7.63412 17.1051 7.54224 16.9892 7.54224Z" fill="#343333"/>
<path fill-rule="evenodd" clip-rule="evenodd" d="M16.4587 8.98688C16.4587 8.94319 16.4765 8.9013 16.5081 8.8704C16.5397 8.83951 16.5826 8.82216 16.6273 8.82216C16.672 8.82216 16.7148 8.83951 16.7465 8.8704C16.7781 8.9013 16.7958 8.94319 16.7958 8.98688C16.7974 9.15417 16.7387 9.31668 16.63 9.44595C16.5783 9.51 16.5124 9.56177 16.4372 9.59736C16.3621 9.63296 16.2797 9.65145 16.1962 9.65145C16.1127 9.65145 16.0302 9.63296 15.9551 9.59736C15.88 9.56177 15.8141 9.51 15.7623 9.44595C15.6529 9.31693 15.5932 9.15447 15.5938 8.98688C15.5938 8.94248 15.6118 8.89989 15.6439 8.8685C15.6761 8.8371 15.7196 8.81946 15.7651 8.81946C15.7875 8.81946 15.8096 8.8238 15.8302 8.83225C15.8509 8.84069 15.8696 8.85307 15.8853 8.86865C15.901 8.88424 15.9133 8.90272 15.9216 8.92301C15.9299 8.94331 15.934 8.96502 15.9337 8.98688C15.9319 9.07607 15.9622 9.16304 16.0193 9.23262C16.0396 9.25995 16.0661 9.2822 16.0969 9.29754C16.1276 9.31288 16.1617 9.32088 16.1962 9.32088C16.2307 9.32088 16.2647 9.31288 16.2955 9.29754C16.3262 9.2822 16.3528 9.25995 16.373 9.23262C16.4302 9.16304 16.4605 9.07607 16.4587 8.98688Z" fill="#343333"/>
<path fill-rule="evenodd" clip-rule="evenodd" d="M12.2831 11.258L9.5943 11.1851C9.5943 11.1851 8.42539 17.3662 8.35354 19.7183C8.28169 22.0703 9.7905 23.3341 11.6696 23.4043C13.5487 23.4745 14.8696 22.8426 15.3007 19.297C15.7318 15.7514 16.3425 12.3786 16.3425 12.3786L14.1953 11.4821L12.2831 11.258Z" fill="#ED2B38"/>
<path fill-rule="evenodd" clip-rule="evenodd" d="M12.6344 10.067L12.2171 11.4874C12.1852 11.5972 12.1774 11.7124 12.1942 11.8254C12.211 11.9384 12.2521 12.0466 12.3147 12.143C12.3773 12.2394 12.4601 12.3217 12.5576 12.3847C12.655 12.4476 12.765 12.4897 12.8803 12.5082C13.7618 12.6999 13.9857 12.0842 14.1045 11.7683C14.1684 11.5832 14.2129 11.3923 14.2371 11.1985L12.6344 10.067Z" fill="#FEBD93"/>
<path fill-rule="evenodd" clip-rule="evenodd" d="M8.35354 19.7182C8.28169 22.0702 9.7905 23.334 11.6696 23.4042C13.3276 23.4664 14.5546 22.9803 15.1155 20.4122L8.37012 19.5724C8.3563 19.6237 8.35354 19.6723 8.35354 19.7182Z" fill="#66BA46"/>
<path fill-rule="evenodd" clip-rule="evenodd" d="M9.69384 21.8786C9.66159 21.6175 9.73679 21.3546 9.90288 21.1478C10.069 20.9409 10.3124 20.807 10.5795 20.7755C10.8466 20.7439 11.1157 20.8174 11.3274 20.9797C11.5391 21.142 11.6761 21.3799 11.7083 21.6409C11.7083 21.6409 11.8327 22.4943 12.3135 27.3117C12.4572 28.7537 12.5429 30.2255 12.5899 31.6324C11.8925 31.4812 11.2065 31.2836 10.5367 31.041C10.4842 29.896 10.4068 28.7105 10.2852 27.5008C9.80991 22.6671 9.6966 21.884 9.69384 21.8786Z" fill="#FEBD93"/>
<path fill-rule="evenodd" clip-rule="evenodd" d="M9.01155 21.8758C8.98252 21.6602 8.99723 21.4411 9.05484 21.2311C9.11245 21.021 9.21184 20.8241 9.34733 20.6516C9.48282 20.4791 9.65175 20.3343 9.84448 20.2256C10.0372 20.1169 10.25 20.0463 10.4706 20.0179C10.6913 19.9896 10.9155 20.0039 11.1304 20.0602C11.3454 20.1165 11.5469 20.2137 11.7234 20.3461C11.8999 20.4785 12.0481 20.6435 12.1593 20.8319C12.2706 21.0202 12.3428 21.2281 12.3718 21.4437C12.3718 21.4437 12.4934 22.3079 12.9715 27.0956L9.61397 27.5115C9.19117 23.2827 9.01155 21.8785 9.01155 21.8758Z" fill="#66BA46"/>
<path fill-rule="evenodd" clip-rule="evenodd" d="M11.0233 26.6204C11.0273 26.6641 11.0134 26.7076 10.9847 26.7412C10.9559 26.7749 10.9146 26.7961 10.8699 26.8C10.8252 26.8039 10.7807 26.7904 10.7463 26.7622C10.7118 26.7341 10.6902 26.6938 10.6862 26.6501L10.1335 20.396C10.1295 20.3523 10.1434 20.3089 10.1721 20.2752C10.2009 20.2415 10.2422 20.2204 10.2869 20.2164C10.3316 20.2125 10.376 20.2261 10.4105 20.2542C10.445 20.2823 10.4666 20.3226 10.4706 20.3663L11.0233 26.6204ZM11.8192 26.5394L11.2665 20.288C11.2628 20.2443 11.2415 20.2038 11.2073 20.1755C11.1731 20.1471 11.1288 20.1332 11.0841 20.1368C11.0394 20.1404 10.998 20.1612 10.9689 20.1946C10.9399 20.228 10.9257 20.2713 10.9293 20.315L11.482 26.5691C11.484 26.5907 11.4904 26.6118 11.5007 26.631C11.511 26.6503 11.5251 26.6673 11.5421 26.6812C11.5592 26.6952 11.5789 26.7056 11.6001 26.7121C11.6213 26.7186 11.6437 26.7209 11.6658 26.719C11.6879 26.717 11.7095 26.7108 11.7291 26.7008C11.7488 26.6907 11.7663 26.6769 11.7805 26.6602C11.7948 26.6436 11.8055 26.6243 11.8121 26.6036C11.8188 26.5828 11.8212 26.561 11.8192 26.5394Z" fill="white"/>
<path d="M11.6143 13.2631L12.5195 13.4406C12.5195 13.4406 12.7574 13.503 12.8611 14.0307C12.9649 14.5584 13.0559 14.7346 13.4244 14.8098C13.1011 15.2218 12.7151 15.7933 12.7151 15.7933C12.6832 15.8163 12.6466 15.832 12.608 15.8393C12.5693 15.8466 12.5295 15.8453 12.4914 15.8354C12.4196 15.8203 12.3544 15.7829 12.3051 15.7285L11.6143 13.2631Z" fill="white"/>
<path d="M13.5147 14.6992C13.8197 14.759 14.1154 14.5603 14.1753 14.2553C14.2351 13.9503 14.0364 13.6546 13.7314 13.5948C13.4264 13.535 13.1307 13.7337 13.0709 14.0386C13.011 14.3436 13.2098 14.6393 13.5147 14.6992Z" fill="white"/>
<path d="M9.37692 16.3119L9.69338 15.7615L9.87944 15.798L9.46914 16.4817L9.21161 16.4312L9.09106 15.6434L9.27607 15.6797L9.36116 16.3088L9.37692 16.3119ZM10.1089 15.9839C10.2887 16.0191 10.4192 16.1441 10.379 16.3491C10.3384 16.5561 10.1709 16.6194 9.9912 16.5841C9.8125 16.549 9.682 16.4241 9.722 16.2202C9.7618 16.0173 9.93025 15.9488 10.1089 15.9839ZM10.0197 16.439C10.1206 16.4588 10.2015 16.4245 10.2224 16.3183C10.2438 16.209 10.1812 16.1498 10.0803 16.13C9.98042 16.1104 9.90049 16.1395 9.87863 16.2509C9.85698 16.3613 9.91979 16.4194 10.0197 16.439ZM10.5292 16.6897L10.3705 16.6585L10.5188 15.9027L10.6775 15.9339L10.5292 16.6897ZM11.1622 16.2014L11.322 16.2328L11.2063 16.8225L11.0465 16.7911L11.0634 16.7049L11.056 16.7035C11.0079 16.7486 10.9477 16.7717 10.8415 16.7509C10.5924 16.702 10.6269 16.4927 10.6438 16.4065L10.7018 16.1111L10.8605 16.1422L10.8025 16.4376C10.7935 16.4839 10.7611 16.5932 10.9146 16.6233C11.0523 16.6503 11.0906 16.5662 11.1063 16.4863L11.1622 16.2014ZM11.744 16.3156C11.9932 16.3644 11.9584 16.5749 11.9415 16.6611L11.8838 16.9554L11.7251 16.9242L11.7828 16.6299C11.7919 16.5837 11.8232 16.4741 11.6708 16.4442C11.532 16.417 11.4947 16.5014 11.479 16.5812L11.4234 16.8651L11.2636 16.8337L11.3793 16.244L11.5391 16.2754L11.5219 16.3626L11.5293 16.364C11.5775 16.3189 11.6379 16.2947 11.744 16.3156ZM12.2327 16.5533L12.1916 16.7625L12.1892 16.7751C12.1725 16.8603 12.2126 16.8561 12.3677 16.8778L12.3372 17.0334C12.3372 17.0334 12.3036 17.0377 12.1438 17.0064C11.983 16.9748 12.0087 16.8434 12.0254 16.7583L12.0718 16.5218L11.9941 16.5065L12.0204 16.372L12.0982 16.3872L12.1316 16.2169L12.2925 16.2485L12.2591 16.4188L12.4504 16.4563L12.424 16.5909L12.2327 16.5533ZM13.0277 16.9123L12.5568 16.82C12.5529 16.9011 12.5925 16.9492 12.6955 16.9694C12.7912 16.9882 12.8437 16.9712 12.866 16.9352L13.0205 16.9655C12.9798 17.0896 12.8615 17.1472 12.6681 17.1092C12.4663 17.0697 12.3715 16.9463 12.4101 16.7497C12.4478 16.5573 12.5862 16.4753 12.7848 16.5143C12.8679 16.5306 12.931 16.5648 12.9736 16.6092L12.9738 16.6081C13.0721 16.7082 13.0583 16.8343 13.034 16.9136L13.0277 16.9123ZM12.7574 16.6541C12.6691 16.6368 12.6144 16.6599 12.5837 16.7161L12.8948 16.7771C12.8909 16.7305 12.8709 16.6764 12.7574 16.6541ZM13.7083 17.0459L13.2373 16.9535C13.2334 17.0346 13.2731 17.0827 13.3761 17.103C13.4718 17.1217 13.5242 17.1047 13.5466 17.0687L13.7011 17.099C13.6604 17.2231 13.5421 17.2807 13.3487 17.2428C13.1469 17.2032 13.0521 17.0798 13.0907 16.8832C13.1284 16.6908 13.2668 16.6088 13.4654 16.6478C13.5485 16.6641 13.6116 16.6983 13.6542 16.7427L13.6544 16.7416C13.7527 16.8417 13.7389 16.9678 13.7146 17.0471L13.7083 17.0459ZM13.438 16.7876C13.3497 16.7703 13.295 16.7934 13.2643 16.8496L13.5754 16.9106C13.5715 16.864 13.5515 16.8099 13.438 16.7876ZM14.1681 16.7911C14.2102 16.7994 14.243 16.8156 14.2691 16.8273L14.2144 16.9727C14.2005 16.9656 14.1612 16.9491 14.1107 16.9392C13.9919 16.9159 13.9391 17.0016 13.9234 17.0815L13.8716 17.3454L13.7119 17.314L13.8276 16.7243L13.9873 16.7556L13.9702 16.8429L13.9797 16.8448C14.0244 16.7946 14.0662 16.7711 14.1681 16.7911ZM14.3377 17.4368L14.1789 17.4056L14.2938 16.8201L14.4525 16.8513L14.3377 17.4368ZM14.4608 16.8092L14.302 16.7781L14.3301 16.6351L14.4888 16.6663L14.4608 16.8092ZM14.875 16.9298C15.1241 16.9787 15.0893 17.1891 15.0724 17.2753L15.0147 17.5696L14.856 17.5385L14.9137 17.2441C14.9228 17.1979 14.9541 17.0883 14.8017 17.0584C14.6629 17.0312 14.6256 17.1156 14.61 17.1955L14.5543 17.4793L14.3945 17.4479L14.5102 16.8582L14.67 16.8896L14.6529 16.9768L14.6602 16.9783C14.7084 16.9331 14.7688 16.909 14.875 16.9298ZM15.1656 17.5992C15.1141 17.5891 15.0803 17.5388 15.0904 17.4873C15.1007 17.4347 15.151 17.4009 15.2025 17.411C15.255 17.4213 15.2888 17.4716 15.2785 17.5242C15.2684 17.5757 15.2181 17.6095 15.1656 17.5992Z" fill="white"/>
<path fill-rule="evenodd" clip-rule="evenodd" d="M17.6772 15.9592C18.8489 15.9592 20.0234 15.9592 21.195 15.9592H23.8424C24.1408 15.9592 24.3536 15.8809 24.442 15.6892C24.157 15.7096 23.871 15.715 23.5854 15.7054H22.7564C22.2037 15.6838 21.6178 15.727 21.0652 15.7054C20.5125 15.6838 19.9322 15.7189 19.374 15.7054C18.8158 15.6919 18.2437 15.7054 17.6828 15.7054L17.6772 15.9592Z" fill="#BCBCBC"/>
<path fill-rule="evenodd" clip-rule="evenodd" d="M17.4893 11.9411H24.2457V11.671C22.5076 11.671 20.7197 11.6575 18.9953 11.671H18.1248C17.8595 11.6872 17.6164 11.7034 17.4893 11.9411Z" fill="#BCBCBC"/>
<path fill-rule="evenodd" clip-rule="evenodd" d="M17.415 12.4784H24.2461V12.2246H17.415V12.4784Z" fill="#BCBCBC"/>
<path fill-rule="evenodd" clip-rule="evenodd" d="M16.9453 17.2851H23.699V17.0448C23.6824 17.0448 23.699 17.0448 23.6576 17.0313H23.5056H17.5643C17.3211 17.0178 17.0641 17.0448 16.9453 17.2851Z" fill="#BCBCBC"/>
<path fill-rule="evenodd" clip-rule="evenodd" d="M17.5031 13.0375C17.6199 13.0111 17.7404 13.0038 17.8596 13.0159C17.9857 13.0079 18.1121 13.0079 18.2382 13.0159H19.0589H24.2541V12.7675H17.4009C17.4 12.8667 17.4364 12.9628 17.5031 13.0375Z" fill="#BCBCBC"/>
<path fill-rule="evenodd" clip-rule="evenodd" d="M17.6885 14.8846L18.2356 14.8765V14.6281H17.6885V14.8846Z" fill="#BCBCBC"/>
<path d="M23.6988 17.8118H16.8677V18.098H23.6988V17.8118Z" fill="#E7E7E7"/>
<path fill-rule="evenodd" clip-rule="evenodd" d="M17.6772 15.6974C18.2299 15.6974 18.8075 15.6812 19.3684 15.6974C19.9294 15.7136 20.5014 15.6758 21.0596 15.6974C21.6178 15.719 22.1954 15.6731 22.7508 15.6974H23.5798C23.8655 15.707 24.1514 15.7016 24.4365 15.6812C24.4813 15.5978 24.505 15.5052 24.5056 15.4111H17.6772V15.6974Z" fill="#E7E7E7"/>
<path fill-rule="evenodd" clip-rule="evenodd" d="M17.415 12.2274H24.2461V11.9412H17.4897C17.4444 12.0304 17.4189 12.1279 17.415 12.2274Z" fill="#E7E7E7"/>
<path fill-rule="evenodd" clip-rule="evenodd" d="M16.8677 17.566H23.6987V17.2771H16.945C16.8902 17.3637 16.8632 17.4643 16.8677 17.566Z" fill="#E7E7E7"/>
<path d="M24.2461 12.4785H17.415V12.7594H24.2461V12.4785Z" fill="#E7E7E7"/>
<path fill-rule="evenodd" clip-rule="evenodd" d="M23.6989 18.6245V18.3545C23.4419 18.3328 23.1103 18.3545 22.845 18.3545C22.5797 18.3545 22.2923 18.3545 22.016 18.3545C21.4633 18.3545 20.883 18.3355 20.3248 18.3545C19.7666 18.3734 19.189 18.3301 18.6336 18.3545H17.1469C17.0806 18.3545 17.0032 18.3382 16.959 18.3761C17.064 18.5732 17.2685 18.6461 17.5752 18.6326H23.7044L23.6989 18.6245Z" fill="#E7E7E7"/>
<path fill-rule="evenodd" clip-rule="evenodd" d="M18.2465 15.1545H17.6938V15.403H24.5277V15.1572H19.0673L19.0065 15.1221L18.9567 15.087L18.8545 15.0222C18.7903 14.9732 18.7219 14.9298 18.65 14.8926C18.5098 14.9712 18.375 15.0587 18.2465 15.1545Z" fill="#E7E7E7"/>
<path d="M23.6988 17.566H16.8677V17.8145H23.6988V17.566Z" fill="#E7E7E7"/>
<path fill-rule="evenodd" clip-rule="evenodd" d="M16.9532 18.3681C16.9974 18.3303 17.0747 18.3438 17.1411 18.3465H18.6278C19.1805 18.3222 19.7635 18.3654 20.319 18.3465C20.8744 18.3276 21.4492 18.3465 22.0102 18.3465C22.2865 18.3465 22.5628 18.3465 22.8392 18.3465C23.1155 18.3465 23.4361 18.333 23.6931 18.3465V18.0953H16.8675C16.8613 18.1934 16.8917 18.2903 16.9532 18.3681Z" fill="#E7E7E7"/>
<path fill-rule="evenodd" clip-rule="evenodd" d="M19.0617 15.1546L24.5221 15.1627L24.5194 14.8818L19.0562 14.8845L19.0617 15.1546Z" fill="#E7E7E7"/>
<path fill-rule="evenodd" clip-rule="evenodd" d="M19.0591 14.628C19.4985 14.6415 19.9544 14.6118 20.3938 14.628C20.8332 14.6442 21.2947 14.628 21.7423 14.628C21.9026 14.628 24.3344 14.6469 24.4449 14.628C24.2791 14.2716 23.6933 14.358 23.2953 14.358H19.0591V14.628Z" fill="#E7E7E7"/>
<path fill-rule="evenodd" clip-rule="evenodd" d="M19.0563 13.2858H24.2459V13.005L19.0508 13.0131L19.0563 13.2858Z" fill="#E7E7E7"/>
<path fill-rule="evenodd" clip-rule="evenodd" d="M19.0591 14.8845H24.5223C24.5326 14.789 24.507 14.693 24.4504 14.6145C24.3399 14.6442 21.9081 14.6145 21.7479 14.6145C21.3002 14.6145 20.8442 14.628 20.3993 14.6145C19.9544 14.601 19.504 14.6307 19.0646 14.6145L19.0591 14.8845Z" fill="#E7E7E7"/>
<path fill-rule="evenodd" clip-rule="evenodd" d="M18.2302 13.286V13.0159C18.1041 13.0079 17.9777 13.0079 17.8516 13.0159C17.7324 13.0038 17.6119 13.0111 17.4951 13.0375C17.5552 13.1434 17.6539 13.2234 17.7715 13.2617C17.922 13.2942 18.0769 13.3024 18.2302 13.286Z" fill="#E7E7E7"/>
<path fill-rule="evenodd" clip-rule="evenodd" d="M17.6885 15.1627L18.2467 15.1546L18.2356 14.8765L17.6885 14.8846V15.1627Z" fill="#E7E7E7"/>
<path d="M18.2356 14.3499H17.6885V14.628H18.2356V14.3499Z" fill="#E7E7E7"/>
<path fill-rule="evenodd" clip-rule="evenodd" d="M17.603 13.8233H18.2358V13.2832C18.0802 13.2976 17.9234 13.2866 17.7715 13.2508C17.6539 13.2126 17.5553 13.1326 17.4952 13.0267C17.4324 12.9504 17.4 12.8545 17.404 12.7566V12.2166C17.4083 12.118 17.4337 12.0214 17.4786 11.933C17.6057 11.6954 17.8489 11.663 18.1059 11.663H18.9764C20.709 11.6495 22.4969 11.663 24.2268 11.663C24.3001 11.6608 24.3695 11.6303 24.4198 11.5782C24.47 11.526 24.497 11.4565 24.4948 11.3848C24.4926 11.3132 24.4614 11.2454 24.408 11.1963C24.3547 11.1471 24.2835 11.1208 24.2102 11.1229H17.8931C17.6574 11.0989 17.4192 11.1135 17.1884 11.1661C17.1029 11.2045 17.0288 11.2636 16.9732 11.3378C16.9176 11.412 16.8823 11.4988 16.8707 11.5901C16.8541 11.7791 16.8707 12.7647 16.8707 13.0402C16.8707 13.3642 16.8707 13.637 17.2492 13.7747C17.366 13.7982 17.4841 13.8144 17.603 13.8233Z" fill="#459DCA"/>
<path fill-rule="evenodd" clip-rule="evenodd" d="M19.0591 13.8179H24.3344C24.394 13.7963 24.4442 13.7551 24.4764 13.7015C24.5087 13.6479 24.521 13.585 24.5112 13.5236C24.5049 13.4577 24.4725 13.3968 24.4208 13.3539C24.3692 13.311 24.3025 13.2895 24.2349 13.294H19.0591V13.8179Z" fill="#459DCA"/>
<path fill-rule="evenodd" clip-rule="evenodd" d="M19.0591 14.3498H23.2926C23.6906 14.3498 24.2764 14.258 24.4422 14.6199C24.4988 14.6984 24.5243 14.7944 24.514 14.8899V15.4165C24.5134 15.5106 24.4897 15.6032 24.445 15.6865C24.3565 15.8864 24.1438 15.9566 23.8453 15.9566H21.198C20.0263 15.9566 18.8519 15.9566 17.6802 15.9566C17.6304 15.9568 17.5817 15.9702 17.539 15.9953C17.4964 16.0204 17.4615 16.0563 17.438 16.0991C17.4145 16.142 17.4033 16.1903 17.4056 16.2389C17.4078 16.2874 17.4235 16.3345 17.4508 16.3751C17.477 16.4156 17.5157 16.4468 17.5614 16.4642L17.5945 16.4831H23.7762C23.8702 16.4669 23.8121 16.4831 23.895 16.4831C23.9411 16.4804 23.9872 16.4804 24.0332 16.4831C24.1252 16.4885 24.2175 16.4885 24.3096 16.4831C24.5859 16.4534 24.6135 16.521 24.818 16.3967C24.8875 16.3534 24.9455 16.2946 24.9873 16.2251C25.0291 16.1557 25.0535 16.0775 25.0584 15.9971V14.2769C25.0482 14.2045 25.0234 14.1347 24.9855 14.0717C24.9476 14.0087 24.8972 13.9536 24.8374 13.9097C24.6836 13.8179 24.5014 13.7825 24.3234 13.8098H19.0591V14.3498Z" fill="#434853"/>
<path fill-rule="evenodd" clip-rule="evenodd" d="M17.6775 14.3499H18.2301V13.8098H17.5973C17.5416 13.8245 17.492 13.8559 17.4554 13.8996C17.4189 13.9433 17.3973 13.9971 17.3936 14.0534C17.39 14.1097 17.4045 14.1657 17.435 14.2136C17.4656 14.2614 17.5108 14.2987 17.5642 14.3202C17.6194 14.3553 17.6167 14.3499 17.6775 14.3499Z" fill="#434853"/>
<path fill-rule="evenodd" clip-rule="evenodd" d="M23.6987 18.6246H17.5695C17.2628 18.6246 17.0583 18.5652 16.9533 18.3681C16.8925 18.291 16.8621 18.1952 16.8676 18.098V17.558C16.867 17.4626 16.8938 17.369 16.945 17.2879C17.0638 17.0476 17.3208 17.0179 17.5695 17.0179H23.5108H23.6628C23.696 17.0179 23.6877 17.0179 23.7042 17.0314C23.7706 16.9936 23.7954 17.0314 23.8811 16.9585C23.9301 16.9166 23.9624 16.8593 23.9723 16.7964C23.9849 16.7316 23.9728 16.6644 23.9381 16.6077C23.9035 16.5509 23.8488 16.5086 23.7844 16.4886H17.6027C17.0776 16.4886 16.5222 16.3509 16.3453 16.8613C16.3318 16.9152 16.3244 16.9704 16.3232 17.026V18.4383C16.3232 18.7785 16.3232 18.8757 16.5222 19.0432C16.7212 19.2106 16.8676 19.1431 17.0168 19.1647C17.0445 19.1647 17.2269 19.1647 17.3871 19.1647C17.4479 19.1677 17.5088 19.1677 17.5695 19.1647C17.6469 19.1647 17.7077 19.1809 17.7547 19.1809C17.8017 19.1809 17.8652 19.1647 17.9453 19.1647C18.0051 19.1697 18.0652 19.1697 18.125 19.1647H19.0783C19.1381 19.1698 19.1982 19.1698 19.258 19.1647C19.3409 19.1647 19.4017 19.1647 19.4486 19.1809C19.4956 19.1971 19.5564 19.1647 19.6365 19.1647C19.8206 19.1756 20.0052 19.1756 20.1892 19.1647C20.3108 19.1458 20.7419 19.1647 20.9326 19.1647C20.9978 19.1577 21.0636 19.1577 21.1288 19.1647C21.1885 19.1697 21.2486 19.1697 21.3084 19.1647C21.3885 19.1647 21.4493 19.1647 21.4991 19.1809C21.5488 19.1971 21.6179 19.1647 21.7036 19.1647C21.7633 19.1698 21.8234 19.1698 21.8832 19.1647C22.0065 19.1584 22.1301 19.1584 22.2535 19.1647H23.193C23.2538 19.1678 23.3146 19.1678 23.3754 19.1647C23.5053 19.1647 23.7568 19.2214 23.8894 19.1026C23.9343 19.0664 23.9663 19.0173 23.981 18.9623C23.9956 18.9073 23.9922 18.8491 23.971 18.7962C23.9499 18.7432 23.9122 18.6981 23.8633 18.6673C23.8144 18.6365 23.7568 18.6216 23.6987 18.6246Z" fill="#EC4C4C"/>
<path fill-rule="evenodd" clip-rule="evenodd" d="M18.23 13.2859V14.8737V15.1437C18.3564 15.0453 18.4894 14.9551 18.6279 14.8737C18.6998 14.9109 18.7683 14.9543 18.8324 15.0033L18.9346 15.0681L18.9844 15.1032L19.0452 15.1383V14.8683V13.2697V12.9996H18.23V13.2859Z" fill="#E9C944"/>
<path fill-rule="evenodd" clip-rule="evenodd" d="M23.6988 18.1331H16.8677C16.8684 18.2185 16.8986 18.3013 16.9533 18.368C16.9976 18.3302 17.0749 18.3437 17.1412 18.3464H18.628C19.1806 18.3221 19.7637 18.3653 20.3191 18.3464C20.8746 18.3275 21.4494 18.3464 22.0103 18.3464C22.2867 18.3464 22.563 18.3464 22.8393 18.3464C23.1157 18.3464 23.4362 18.3329 23.6932 18.3464L23.6988 18.1331Z" fill="#BCBCBC"/>
<path fill-rule="evenodd" clip-rule="evenodd" d="M23.6988 17.5661L16.8677 17.5634V17.8118H20.3882H23.6988V17.5661Z" fill="#BCBCBC"/>
<path d="M24.5223 15.1897H17.6885V15.4084H24.5223V15.1897Z" fill="#BCBCBC"/>
<path fill-rule="evenodd" clip-rule="evenodd" d="M19.0591 14.6281V14.8792H24.5223C24.5281 14.7903 24.5039 14.7021 24.4532 14.6281H23.9696C23.5275 14.6281 22.8643 14.6281 22.3834 14.6281H20.8829C20.7871 14.6281 20.695 14.6281 20.6066 14.6281H19.5565C19.4073 14.6281 19.258 14.6281 19.1116 14.6281H19.0591Z" fill="#BCBCBC"/>
<path fill-rule="evenodd" clip-rule="evenodd" d="M9.02229 12.0735C9.01786 11.9609 9.03698 11.8486 9.07846 11.7434C9.11994 11.6383 9.18292 11.5425 9.26356 11.462C9.34419 11.3814 9.44078 11.3178 9.54744 11.2749C9.65409 11.2321 9.76856 11.2109 9.88386 11.2128C9.99916 11.2146 10.1129 11.2394 10.218 11.2856C10.3232 11.3318 10.4176 11.3985 10.4955 11.4816C10.5734 11.5647 10.6332 11.6624 10.6711 11.7688C10.7091 11.8752 10.7244 11.9881 10.7162 12.1005C10.6554 15.2707 10.9705 16.9612 12.0289 17.6417C13.148 18.3681 15.2758 18.2196 18.7577 17.6849C18.9655 17.6738 19.1702 17.7379 19.3327 17.8651C19.4951 17.9922 19.6039 18.1735 19.6381 18.3741C19.6723 18.5747 19.6296 18.7807 19.5181 18.9524C19.4067 19.1242 19.2343 19.2498 19.034 19.3051C15.1266 19.9046 12.6783 20.0288 11.1004 19.0054C9.44785 17.9549 8.95044 15.8621 9.02229 12.0735Z" fill="#FEBD93"/>
</svg>
