<svg width="32" height="32" viewBox="0 0 32 32" fill="none" xmlns="http://www.w3.org/2000/svg">
<path d="M16 31.9996C24.8366 31.9996 32 24.8362 32 15.9998C32 7.16335 24.8366 0 16 0C7.16344 0 0 7.16335 0 15.9998C0 24.8362 7.16344 31.9996 16 31.9996Z" fill="#0A3E54"/>
<path fill-rule="evenodd" clip-rule="evenodd" d="M10.5562 31.0491H21.4439C24.2245 30.0346 26.6628 28.2866 28.4878 25.9993C28.38 25.9993 28.2722 25.9993 28.1644 25.9993C26.9559 25.9993 25.7969 25.5302 24.9423 24.6951C24.0877 23.86 23.6076 22.7274 23.6076 21.5464C23.6076 22.7281 23.1272 23.8614 22.2722 24.697C21.4171 25.5326 20.2573 26.002 19.048 26.002C17.8388 26.002 16.679 25.5326 15.8239 24.697C14.9688 23.8614 14.4885 22.7281 14.4885 21.5464C14.4885 22.7281 14.0081 23.8614 13.153 24.697C12.2979 25.5326 11.1381 26.002 9.92887 26.002C8.71959 26.002 7.55984 25.5326 6.70475 24.697C5.84967 23.8614 5.36928 22.7281 5.36928 21.5464C5.36988 22.3327 5.15715 23.105 4.75278 23.7848C4.34842 24.4646 3.76686 25.0274 3.06738 25.416C4.92979 27.9844 7.53879 29.9469 10.5562 31.0491Z" fill="#046887"/>
<path fill-rule="evenodd" clip-rule="evenodd" d="M15.5108 31.9915H16.489C18.8602 31.9147 21.1835 31.319 23.2878 30.2483C25.3921 29.1776 27.2238 27.6592 28.6479 25.8049C28.1756 25.3875 27.7982 24.8779 27.5402 24.309C27.2822 23.7401 27.1493 23.1246 27.1501 22.5023C27.1501 23.684 26.6698 24.8173 25.8147 25.6529C24.9596 26.4885 23.7998 26.958 22.5906 26.958C21.3813 26.958 20.2215 26.4885 19.3664 25.6529C18.5114 24.8173 18.031 23.684 18.031 22.5023C18.031 23.684 17.5506 24.8173 16.6955 25.6529C15.8404 26.4885 14.6807 26.958 13.4714 26.958C12.2621 26.958 11.1024 26.4885 10.2473 25.6529C9.39219 24.8173 8.9118 23.684 8.9118 22.5023C8.9118 23.0871 8.79394 23.6661 8.56494 24.2064C8.33593 24.7466 8.00028 25.2375 7.57714 25.651C7.154 26.0645 6.65166 26.3925 6.0988 26.6163C5.54594 26.8401 4.95339 26.9553 4.35498 26.9553C5.77562 28.4807 7.49482 29.7124 9.41094 30.5774C11.3271 31.4424 13.4012 31.9233 15.5108 31.9915Z" fill="#0793BD"/>
<path fill-rule="evenodd" clip-rule="evenodd" d="M26.4678 28.1002C26.2926 28.1197 26.1164 28.1296 25.94 28.1299C24.7315 28.1299 23.5724 27.6608 22.7178 26.8257C21.8633 25.9906 21.3832 24.858 21.3832 23.677C21.3832 24.8587 20.9028 25.992 20.0477 26.8276C19.1926 27.6632 18.0329 28.1326 16.8236 28.1326C15.6143 28.1326 14.4546 27.6632 13.5995 26.8276C12.7444 25.992 12.264 24.8587 12.264 23.677C12.264 24.8587 11.7836 25.992 10.9285 26.8276C10.0735 27.6632 8.91371 28.1326 7.70443 28.1326C6.49515 28.1326 5.33541 27.6632 4.48032 26.8276C3.62523 25.992 3.14484 24.8587 3.14484 23.677C3.14468 24.1857 3.05591 24.6907 2.88232 25.1703C4.13613 26.9987 5.7763 28.5433 7.69238 29.7002C9.60845 30.8571 11.756 31.5993 13.9903 31.8769C16.2246 32.1546 18.4938 31.9611 20.6452 31.3097C22.7966 30.6582 24.7801 29.5638 26.4623 28.1002H26.4678Z" fill="#00ACED"/>
<path fill-rule="evenodd" clip-rule="evenodd" d="M18.473 14.4308C18.4773 14.3408 18.5003 14.2526 18.5406 14.1715C18.5809 14.0905 18.6376 14.0183 18.7073 13.9593C18.7771 13.9003 18.8583 13.8559 18.9462 13.8286C19.0341 13.8013 19.1267 13.7917 19.2185 13.8005C19.3103 13.8093 19.3993 13.8363 19.48 13.8798C19.5608 13.9232 19.6317 13.9823 19.6884 14.0534C19.745 14.1245 19.7863 14.2061 19.8097 14.2933C19.8331 14.3804 19.8381 14.4713 19.8243 14.5604C19.5646 17.0934 19.0423 18.1493 19.8409 18.7649C20.6893 19.4157 21.0458 19.0107 23.8672 18.8027C24.0416 18.7984 24.211 18.8596 24.3405 18.9739C24.4699 19.0882 24.5494 19.2468 24.5626 19.4168C24.5757 19.5868 24.5214 19.7552 24.411 19.8872C24.3006 20.0192 24.1425 20.1047 23.9694 20.1259C20.8053 20.3582 19.5287 20.585 18.3349 19.6642C17.0914 18.7082 18.1608 17.4553 18.473 14.4308Z" fill="#BD7A68"/>
<path fill-rule="evenodd" clip-rule="evenodd" d="M16.3978 21.4087C16.3788 21.3021 16.3823 21.1929 16.4079 21.0877C16.4336 20.9825 16.4809 20.8835 16.547 20.7967C16.6131 20.7099 16.6966 20.6372 16.7923 20.583C16.8881 20.5288 16.9942 20.4942 17.1041 20.4814C17.214 20.4685 17.3254 20.4777 17.4316 20.5083C17.5377 20.5389 17.6364 20.5903 17.7216 20.6594C17.8068 20.7284 17.8766 20.8137 17.927 20.9101C17.9773 21.0064 18.007 21.1117 18.0144 21.2197C18.0144 21.2197 18.1138 21.9029 18.4979 25.7698C18.7052 27.8302 18.7743 29.9635 18.7743 31.7539C18.2465 31.8456 17.7143 31.9114 17.1798 31.951C17.1384 30.158 17.0914 28.0787 16.8786 25.9237C16.4917 22.046 16.4005 21.4087 16.3978 21.4087Z" fill="#BD7A68"/>
<path fill-rule="evenodd" clip-rule="evenodd" d="M15.851 21.4087C15.8159 21.0654 15.9188 20.7222 16.138 20.4517C16.3572 20.1813 16.6755 20.0047 17.0255 19.9595C17.3755 19.9142 17.7298 20.0038 18.0134 20.2092C18.2971 20.4147 18.4878 20.7199 18.5453 21.0603C18.5453 21.0603 18.6448 21.7543 19.0289 25.5943L16.3346 25.9291C15.9864 22.5428 15.851 21.4087 15.851 21.4087Z" fill="#AD8A0C"/>
<path fill-rule="evenodd" clip-rule="evenodd" d="M17.4894 7.60696H19.4928C19.703 7.60767 19.9043 7.68955 20.0528 7.83474C20.2014 7.97993 20.2852 8.17664 20.2859 8.38197V11.5522C20.2823 11.908 20.1351 12.2479 19.8764 12.4982C19.6177 12.7485 19.2683 12.8889 18.9042 12.8889H18.2327C17.6923 12.8875 17.1744 12.6771 16.7923 12.3036C16.4101 11.9302 16.1948 11.4241 16.1934 10.896V8.85994C16.1941 8.69446 16.2282 8.53074 16.2938 8.37816C16.3593 8.22558 16.455 8.08713 16.5754 7.97075C16.6958 7.85436 16.8385 7.76233 16.9953 7.6999C17.1522 7.63748 17.32 7.60589 17.4894 7.60696Z" fill="#FEBD93"/>
<path fill-rule="evenodd" clip-rule="evenodd" d="M20.0678 8.63583L17.2575 9.76189L17.5034 9.22182L16.8264 9.86991L16.6523 10.7853L15.8979 10.194L15.5856 8.75735L15.0329 8.44681L15.3093 8.33339L14.5742 7.89863L15.2512 7.84192L14.6737 7.48817C14.6737 7.48817 18.7829 7.0237 19.5621 7.17763C19.84 7.23054 20.089 7.3795 20.2636 7.59721C20.4381 7.81493 20.5266 8.08683 20.5127 8.3631C20.4934 8.65 20.4203 8.93099 20.2972 9.19211C20.2972 9.19211 20.0568 8.64123 20.0678 8.63583Z" fill="#343333"/>
<path fill-rule="evenodd" clip-rule="evenodd" d="M16.1686 10.1156C16.2785 10.1156 16.3858 10.1477 16.477 10.2076C16.5682 10.2676 16.639 10.3528 16.6804 10.4522C16.7218 10.5517 16.7319 10.661 16.7094 10.7661C16.6869 10.8712 16.6329 10.9674 16.5542 11.0424C16.4755 11.1173 16.3758 11.1677 16.2677 11.187C16.1596 11.2063 16.048 11.1936 15.9473 11.1507C15.8466 11.1077 15.7613 11.0364 15.7022 10.9458C15.6432 10.8552 15.6131 10.7495 15.6159 10.6422C15.6195 10.5013 15.6793 10.3674 15.7826 10.269C15.8858 10.1706 16.0244 10.1156 16.1686 10.1156Z" fill="#FEBD93"/>
<path d="M18.4374 9.9104H18.4347C18.3416 9.9104 18.2661 9.98415 18.2661 10.0751V10.2669C18.2661 10.3578 18.3416 10.4316 18.4347 10.4316H18.4374C18.5305 10.4316 18.606 10.3578 18.606 10.2669V10.0751C18.606 9.98415 18.5305 9.9104 18.4374 9.9104Z" fill="#343333"/>
<path d="M19.9985 9.9104H19.9957C19.9026 9.9104 19.8271 9.98415 19.8271 10.0751V10.2669C19.8271 10.3578 19.9026 10.4316 19.9957 10.4316H19.9985C20.0916 10.4316 20.167 10.3578 20.167 10.2669V10.0751C20.167 9.98415 20.0916 9.9104 19.9985 9.9104Z" fill="#343333"/>
<path fill-rule="evenodd" clip-rule="evenodd" d="M19.5787 11.0769C19.5787 11.0411 19.5933 11.0068 19.6192 10.9814C19.6451 10.9561 19.6802 10.9419 19.7169 10.9419C19.7535 10.9419 19.7887 10.9561 19.8146 10.9814C19.8405 11.0068 19.855 11.0411 19.855 11.0769C19.8565 11.2116 19.8096 11.3425 19.7224 11.4469C19.6807 11.4981 19.6278 11.5394 19.5675 11.5678C19.5072 11.5962 19.4412 11.611 19.3742 11.611C19.3073 11.611 19.2412 11.5962 19.1809 11.5678C19.1206 11.5394 19.0677 11.4981 19.026 11.4469C18.9381 11.3428 18.8902 11.2119 18.8906 11.0769C18.8906 11.0411 18.9052 11.0068 18.9311 10.9814C18.957 10.9561 18.9922 10.9419 19.0288 10.9419C19.0654 10.9419 19.1006 10.9561 19.1265 10.9814C19.1524 11.0068 19.167 11.0411 19.167 11.0769C19.1646 11.1487 19.1892 11.2188 19.2361 11.274C19.2526 11.2953 19.2739 11.3127 19.2983 11.3249C19.3227 11.337 19.3496 11.3436 19.377 11.3442C19.4042 11.3431 19.4309 11.3362 19.4553 11.3241C19.4796 11.312 19.5009 11.2949 19.5179 11.274C19.5605 11.217 19.582 11.1475 19.5787 11.0769Z" fill="#343333"/>
<path fill-rule="evenodd" clip-rule="evenodd" d="M16.2239 12.8944L14.0657 12.835C14.0657 12.835 13.1289 17.7929 13.0709 19.6804C13.0128 21.568 14.2232 22.5834 15.7237 22.6509C17.2242 22.7184 18.2881 22.1999 18.6335 19.3537C18.979 16.5075 19.4626 13.8017 19.4626 13.8017L17.741 13.0834L16.2239 12.8944Z" fill="#66BA46"/>
<path fill-rule="evenodd" clip-rule="evenodd" d="M16.5059 11.933L16.1688 13.0725C16.1456 13.1601 16.1413 13.2514 16.156 13.3408C16.1707 13.4301 16.2041 13.5154 16.2542 13.5915C16.3043 13.6676 16.37 13.7327 16.447 13.7828C16.5241 13.8329 16.6109 13.8669 16.7021 13.8827C17.4095 14.0366 17.5974 13.5451 17.6831 13.2913C17.734 13.142 17.7701 12.9883 17.7909 12.8322L16.5059 11.933Z" fill="#FEBD93"/>
<path fill-rule="evenodd" clip-rule="evenodd" d="M13.0709 19.6804C13.0128 21.5707 14.2232 22.5833 15.7237 22.6508C17.0501 22.6994 18.0367 22.3079 18.4871 20.2475L13.0736 19.5751C13.0736 19.6048 13.0709 19.6426 13.0709 19.6804Z" fill="#FFCA05"/>
<path fill-rule="evenodd" clip-rule="evenodd" d="M14.1458 21.4087C14.1269 21.3021 14.1303 21.1929 14.156 21.0877C14.1816 20.9825 14.229 20.8835 14.295 20.7967C14.3611 20.7099 14.4446 20.6372 14.5404 20.583C14.6362 20.5288 14.7422 20.4942 14.8521 20.4814C14.962 20.4685 15.0735 20.4777 15.1796 20.5083C15.2858 20.5389 15.3845 20.5903 15.4696 20.6594C15.5548 20.7284 15.6247 20.8137 15.675 20.9101C15.7254 21.0064 15.7551 21.1117 15.7624 21.2197C15.7624 21.2197 15.8619 21.9029 16.246 25.7698C16.4615 27.9301 16.5223 30.1472 16.5223 31.9807H16.0001C15.6381 31.9807 15.2816 31.9672 14.9251 31.9429C14.8864 30.1499 14.8394 28.0679 14.6267 25.9102C14.2398 22.046 14.1458 21.4087 14.1458 21.4087Z" fill="#FEBD93"/>
<path fill-rule="evenodd" clip-rule="evenodd" d="M13.5985 21.4087C13.5634 21.0654 13.6664 20.7222 13.8856 20.4517C14.1048 20.1813 14.4231 20.0047 14.7731 19.9595C15.1231 19.9142 15.4774 20.0038 15.761 20.2092C16.0446 20.4147 16.2354 20.7199 16.2928 21.0603C16.2928 21.0603 16.3923 21.7543 16.7737 25.5943L14.0821 25.9291C13.7422 22.5428 13.5985 21.4087 13.5985 21.4087Z" fill="#FFCA05"/>
<path fill-rule="evenodd" clip-rule="evenodd" d="M15.2122 25.2189C15.2137 25.2363 15.2116 25.2538 15.2062 25.2704C15.2008 25.287 15.192 25.3024 15.1805 25.3157C15.1689 25.329 15.1548 25.34 15.1389 25.3479C15.123 25.3559 15.1056 25.3607 15.0878 25.362C15.0702 25.3639 15.0523 25.3623 15.0353 25.3573C15.0183 25.3523 15.0025 25.344 14.9889 25.3329C14.9752 25.3218 14.964 25.3082 14.9558 25.2928C14.9476 25.2774 14.9427 25.2605 14.9413 25.2432L14.502 20.2259C14.4989 20.1905 14.5102 20.1553 14.5335 20.128C14.5568 20.1007 14.5901 20.0835 14.6263 20.0801C14.6441 20.0786 14.662 20.0806 14.679 20.0859C14.696 20.0912 14.7118 20.0997 14.7254 20.111C14.739 20.1223 14.7502 20.1362 14.7584 20.1517C14.7665 20.1672 14.7714 20.1842 14.7728 20.2016L15.2122 25.2189ZM15.8505 25.1541L15.4111 20.1368C15.4097 20.1195 15.4048 20.1026 15.3967 20.0872C15.3885 20.0718 15.3773 20.0582 15.3636 20.0471C15.3499 20.036 15.3341 20.0277 15.3172 20.0227C15.3002 20.0177 15.2823 20.0161 15.2647 20.018C15.2469 20.0193 15.2295 20.0241 15.2136 20.0321C15.1977 20.04 15.1836 20.0509 15.172 20.0642C15.1604 20.0775 15.1517 20.0929 15.1463 20.1096C15.1408 20.1262 15.1388 20.1437 15.1403 20.1611L15.5797 25.1892C15.5811 25.2066 15.586 25.2236 15.5941 25.2391C15.6022 25.2546 15.6134 25.2684 15.627 25.2797C15.6406 25.291 15.6564 25.2996 15.6734 25.3049C15.6904 25.3102 15.7083 25.3122 15.7261 25.3107C15.745 25.3087 15.7632 25.3031 15.7797 25.294C15.7963 25.285 15.8108 25.2728 15.8224 25.2582C15.834 25.2436 15.8424 25.2268 15.8473 25.209C15.8521 25.1911 15.8532 25.1724 15.8505 25.1541Z" fill="white"/>
<path fill-rule="evenodd" clip-rule="evenodd" d="M14.0933 13.2022C14.267 13.1546 14.4529 13.1763 14.6102 13.2627C14.7675 13.349 14.8832 13.4929 14.932 13.6626C14.9807 13.8324 14.9584 14.0141 14.8701 14.1678C14.7817 14.3215 14.6345 14.4346 14.4608 14.4822C11.9516 15.1627 10.6473 15.3868 10.3516 16.3374C10.0366 17.3446 11.106 18.071 13.3168 19.0648C13.3912 19.1 13.4571 19.1503 13.5102 19.2123C13.5633 19.2743 13.6024 19.3466 13.6248 19.4244C13.6473 19.5022 13.6526 19.5838 13.6405 19.6638C13.6283 19.7437 13.599 19.8203 13.5544 19.8884C13.3767 19.9695 13.1812 20.0063 12.9854 19.9955C12.7896 19.9846 12.5996 19.9265 12.4325 19.8263C10.0394 18.5922 8.66045 17.7659 9.11641 16.3482C9.56407 14.871 11.095 14.015 14.0933 13.2022Z" fill="#FEBD93"/>
<path fill-rule="evenodd" clip-rule="evenodd" d="M9.88723 3.21884L9.6109 3.42407C9.28033 3.71775 9.03287 4.08979 8.89242 4.50422C8.86701 4.5727 8.8476 4.64317 8.83438 4.71485C8.81504 4.80397 8.80122 4.81477 8.78464 4.90118C8.73619 5.17938 8.71675 5.46167 8.72661 5.74371C8.7754 6.51958 8.99803 7.27551 9.37877 7.95802C9.77845 8.60648 10.2323 9.22155 10.7356 9.79699C10.8903 9.99141 10.976 10.04 11.1225 10.2263L16.2403 6.35399C16.091 6.16767 16.0358 6.04075 15.8865 5.85442C15.4315 5.23152 14.928 4.6438 14.3805 4.09647C13.8497 3.6273 13.2327 3.26078 12.5622 3.01631C11.9483 2.79666 11.283 2.75264 10.6444 2.88939C10.3747 2.95631 10.1186 3.06773 9.88723 3.21884Z" fill="#046887"/>
<path fill-rule="evenodd" clip-rule="evenodd" d="M11.5869 5.58711C11.8633 6.14879 12.7365 7.51519 13.1178 7.74742C13.2362 7.67558 13.3409 7.58421 13.4273 7.47738C13.3113 7.43688 13.2781 7.34506 13.2311 7.25325C13.0273 6.95835 12.798 6.681 12.5458 6.42423C12.4038 6.24487 12.2526 6.07272 12.0926 5.90846C11.971 5.77074 11.7472 5.5196 11.5869 5.58711Z" fill="#00ACED"/>
<path fill-rule="evenodd" clip-rule="evenodd" d="M21.6371 20.6553L21.7449 20.7903L24.2485 18.9L24.1186 18.7407C23.5494 18.0197 22.3804 17.6065 21.6675 18.1439C20.9048 18.7218 21.0292 19.8937 21.6371 20.6607V20.6553ZM11.1362 10.2264L16.254 6.354L14.0433 8.04715L21.5901 17.5687C21.9145 17.4172 22.2731 17.3493 22.6319 17.3716C22.8044 17.3831 22.975 17.4139 23.1404 17.4634C23.6928 17.6242 24.186 17.9374 24.5608 18.3653C24.8666 18.7082 25.1508 19.0689 25.4119 19.4455L22.0295 22.0082C21.2254 21.1494 20.4875 20.2205 20.6478 18.9756C20.7141 18.4625 20.8108 18.4355 21.0043 18.0521L13.416 8.50351L11.1362 10.2264Z" fill="#343333"/>
<path fill-rule="evenodd" clip-rule="evenodd" d="M17.4894 7.60696H19.4928C19.703 7.60767 19.9043 7.68955 20.0528 7.83474C20.2014 7.97993 20.2852 8.17664 20.2859 8.38197V11.5522C20.2823 11.908 20.1351 12.2479 19.8764 12.4982C19.6177 12.7485 19.2683 12.8889 18.9042 12.8889H18.2327C17.6923 12.8875 17.1744 12.6771 16.7923 12.3036C16.4101 11.9302 16.1948 11.4241 16.1934 10.896V8.85994C16.1941 8.69446 16.2282 8.53074 16.2938 8.37816C16.3593 8.22558 16.455 8.08713 16.5754 7.97075C16.6958 7.85436 16.8385 7.76233 16.9953 7.6999C17.1522 7.63748 17.32 7.60589 17.4894 7.60696Z" fill="#FEBD93"/>
<path fill-rule="evenodd" clip-rule="evenodd" d="M20.0678 8.63583L17.2575 9.76189L17.5034 9.22182L16.8264 9.86991L16.6523 10.7853L15.8979 10.194L15.5856 8.75735L15.0329 8.44681L15.3093 8.33339L14.5742 7.89863L15.2512 7.84192L14.6737 7.48817C14.6737 7.48817 18.7829 7.0237 19.5621 7.17763C19.84 7.23054 20.089 7.3795 20.2636 7.59721C20.4381 7.81493 20.5266 8.08683 20.5127 8.3631C20.4934 8.65 20.4203 8.93099 20.2972 9.19211C20.2972 9.19211 20.0568 8.64123 20.0678 8.63583Z" fill="#343333"/>
<path fill-rule="evenodd" clip-rule="evenodd" d="M16.1686 10.1156C16.2785 10.1156 16.3858 10.1477 16.477 10.2076C16.5682 10.2676 16.639 10.3528 16.6804 10.4522C16.7218 10.5517 16.7319 10.661 16.7094 10.7661C16.6869 10.8712 16.6329 10.9674 16.5542 11.0424C16.4755 11.1173 16.3758 11.1677 16.2677 11.187C16.1596 11.2063 16.048 11.1936 15.9473 11.1507C15.8466 11.1077 15.7613 11.0364 15.7022 10.9458C15.6432 10.8552 15.6131 10.7495 15.6159 10.6422C15.6195 10.5013 15.6793 10.3674 15.7826 10.269C15.8858 10.1706 16.0244 10.1156 16.1686 10.1156Z" fill="#FEBD93"/>
<path d="M18.4374 9.9104H18.4347C18.3416 9.9104 18.2661 9.98415 18.2661 10.0751V10.2669C18.2661 10.3578 18.3416 10.4316 18.4347 10.4316H18.4374C18.5305 10.4316 18.606 10.3578 18.606 10.2669V10.0751C18.606 9.98415 18.5305 9.9104 18.4374 9.9104Z" fill="#343333"/>
<path d="M19.9985 9.9104H19.9957C19.9026 9.9104 19.8271 9.98415 19.8271 10.0751V10.2669C19.8271 10.3578 19.9026 10.4316 19.9957 10.4316H19.9985C20.0916 10.4316 20.167 10.3578 20.167 10.2669V10.0751C20.167 9.98415 20.0916 9.9104 19.9985 9.9104Z" fill="#343333"/>
<path fill-rule="evenodd" clip-rule="evenodd" d="M19.5787 11.0769C19.5787 11.0411 19.5933 11.0068 19.6192 10.9814C19.6451 10.9561 19.6802 10.9419 19.7169 10.9419C19.7535 10.9419 19.7887 10.9561 19.8146 10.9814C19.8405 11.0068 19.855 11.0411 19.855 11.0769C19.8565 11.2116 19.8096 11.3425 19.7224 11.4469C19.6807 11.4981 19.6278 11.5394 19.5675 11.5678C19.5072 11.5962 19.4412 11.611 19.3742 11.611C19.3073 11.611 19.2412 11.5962 19.1809 11.5678C19.1206 11.5394 19.0677 11.4981 19.026 11.4469C18.9381 11.3428 18.8902 11.2119 18.8906 11.0769C18.8906 11.0411 18.9052 11.0068 18.9311 10.9814C18.957 10.9561 18.9922 10.9419 19.0288 10.9419C19.0654 10.9419 19.1006 10.9561 19.1265 10.9814C19.1524 11.0068 19.167 11.0411 19.167 11.0769C19.1646 11.1487 19.1892 11.2188 19.2361 11.274C19.2526 11.2953 19.2739 11.3127 19.2983 11.3249C19.3227 11.337 19.3496 11.3436 19.377 11.3442C19.4042 11.3431 19.4309 11.3362 19.4553 11.3241C19.4796 11.312 19.5009 11.2949 19.5179 11.274C19.5605 11.217 19.582 11.1475 19.5787 11.0769Z" fill="#343333"/>
<path fill-rule="evenodd" clip-rule="evenodd" d="M16.5059 11.933L16.1688 13.0725C16.1456 13.1601 16.1413 13.2514 16.156 13.3408C16.1707 13.4301 16.2041 13.5154 16.2542 13.5915C16.3043 13.6676 16.37 13.7327 16.447 13.7828C16.5241 13.8329 16.6109 13.8669 16.7021 13.8827C17.4095 14.0366 17.5974 13.5451 17.6831 13.2913C17.734 13.142 17.7701 12.9883 17.7909 12.8322L16.5059 11.933Z" fill="#FEBD93"/>
</svg>
