<svg width="32" height="32" viewBox="0 0 32 32" fill="none" xmlns="http://www.w3.org/2000/svg">
<path d="M16 31.9996C24.8366 31.9996 32 24.8362 32 15.9998C32 7.16335 24.8366 0 16 0C7.16344 0 0 7.16335 0 15.9998C0 24.8362 7.16344 31.9996 16 31.9996Z" fill="#0A3E54"/>
<path fill-rule="evenodd" clip-rule="evenodd" d="M10.5562 31.0491H21.4467C24.2268 30.0352 26.6644 28.2871 28.4878 25.9993C28.3828 25.9993 28.275 25.9993 28.1672 25.9993C27.5686 25.9997 26.9757 25.8848 26.4225 25.6611C25.8694 25.4375 25.3667 25.1096 24.9433 24.696C24.5198 24.2825 24.1839 23.7915 23.9548 23.2511C23.7256 22.7106 23.6076 22.1314 23.6076 21.5464C23.6076 22.7281 23.1272 23.8614 22.2722 24.697C21.4171 25.5326 20.2573 26.002 19.048 26.002C17.8388 26.002 16.679 25.5326 15.8239 24.697C14.9688 23.8614 14.4885 22.7281 14.4885 21.5464C14.4885 22.7281 14.0081 23.8614 13.153 24.697C12.2979 25.5326 11.1381 26.002 9.92887 26.002C8.71959 26.002 7.55984 25.5326 6.70475 24.697C5.84967 23.8614 5.36928 22.7281 5.36928 21.5464C5.36931 22.3326 5.15634 23.1047 4.75203 23.7844C4.34772 24.464 3.76648 25.027 3.06738 25.416C4.93004 27.9842 7.53896 29.9466 10.5562 31.0491Z" fill="#046887"/>
<path fill-rule="evenodd" clip-rule="evenodd" d="M15.5109 31.9915H16.4892C18.8603 31.9143 21.1834 31.3184 23.2877 30.2478C25.392 29.1771 27.2237 27.6589 28.6481 25.8049C28.1754 25.3877 27.7976 24.8781 27.5391 24.3092C27.2806 23.7403 27.1472 23.1248 27.1475 22.5023C27.1475 23.0874 27.0296 23.6668 26.8005 24.2074C26.5713 24.748 26.2355 25.2392 25.8121 25.6529C25.3887 26.0667 24.886 26.3949 24.3328 26.6188C23.7796 26.8427 23.1867 26.958 22.588 26.958C21.9892 26.958 21.3963 26.8427 20.8431 26.6188C20.2899 26.3949 19.7872 26.0667 19.3638 25.6529C18.9404 25.2392 18.6046 24.748 18.3754 24.2074C18.1463 23.6668 18.0284 23.0874 18.0284 22.5023C18.0284 23.684 17.548 24.8173 16.6929 25.6529C15.8378 26.4885 14.6781 26.958 13.4688 26.958C12.2595 26.958 11.0998 26.4885 10.2447 25.6529C9.38958 24.8173 8.90919 23.684 8.90919 22.5023C8.90919 23.0873 8.79124 23.6666 8.56206 24.207C8.33289 24.7474 7.99699 25.2384 7.57356 25.652C7.15012 26.0655 6.64746 26.3935 6.09428 26.6171C5.5411 26.8407 4.94825 26.9556 4.34961 26.9553C5.77119 28.481 7.49134 29.7128 9.4084 30.5778C11.3255 31.4428 13.4005 31.9235 15.5109 31.9915Z" fill="#0793BD"/>
<path fill-rule="evenodd" clip-rule="evenodd" d="M26.4704 28.1002C26.2952 28.1196 26.119 28.1295 25.9426 28.1299C25.3437 28.1307 24.7506 28.016 24.1971 27.7925C23.6436 27.5691 23.1406 27.2412 22.7169 26.8276C22.2931 26.4141 21.957 25.9229 21.7277 25.3823C21.4983 24.8417 21.3803 24.2622 21.3803 23.677C21.3803 24.8587 20.8999 25.992 20.0448 26.8276C19.1897 27.6632 18.0299 28.1326 16.8207 28.1326C15.6114 28.1326 14.4516 27.6632 13.5966 26.8276C12.7415 25.992 12.2611 24.8587 12.2611 23.677C12.2611 24.8587 11.7807 25.992 10.9256 26.8276C10.0705 27.6632 8.91078 28.1326 7.7015 28.1326C6.49222 28.1326 5.33247 27.6632 4.47739 26.8276C3.6223 25.992 3.14192 24.8587 3.14192 23.677C3.14175 24.1857 3.05298 24.6907 2.87939 25.1703C4.1332 26.9987 5.77337 28.5433 7.68945 29.7002C9.60552 30.8571 11.753 31.5993 13.9873 31.8769C16.2216 32.1546 18.4909 31.9611 20.6423 31.3097C22.7936 30.6582 24.7772 29.5638 26.4594 28.1002H26.4704Z" fill="#00ACED"/>
<path fill-rule="evenodd" clip-rule="evenodd" d="M7.23443 11.563C7.31492 11.6121 7.39897 11.6555 7.4859 11.6927C7.94124 11.9318 8.35225 12.244 8.70178 12.6162C8.74323 12.6567 8.75705 12.681 8.79574 12.7188C8.83443 12.7566 8.84824 12.7836 8.88693 12.8241C9.04258 12.9927 9.18398 13.1733 9.30973 13.3642C9.4175 13.5235 9.50869 13.6801 9.61094 13.8476C9.66068 13.9259 9.70213 14.0069 9.74634 14.0906L9.99781 14.6307C10.0424 14.7172 10.0785 14.8076 10.1056 14.9007C10.147 14.8737 10.1664 14.7981 10.1912 14.7495L10.3543 14.4336C10.4322 14.2821 10.5247 14.1384 10.6306 14.0042L10.7909 13.8152C10.8213 13.7828 10.8213 13.7747 10.8489 13.745C11.0032 13.5797 11.1745 13.4304 11.3602 13.2994C11.4569 13.2292 11.5425 13.1671 11.6365 13.105L11.9128 12.9456C11.9405 12.9267 11.9128 12.9456 11.9349 12.9267C11.5819 13.0215 11.2482 13.175 10.9484 13.3804C10.8738 13.429 10.813 13.4749 10.7439 13.5262C10.6748 13.5775 10.6804 13.5829 10.6444 13.6099L10.3681 13.88C10.313 13.9463 10.252 14.0078 10.1857 14.0636C10.1906 13.9204 10.2119 13.7782 10.2493 13.6396C10.2644 13.5775 10.2828 13.5162 10.3045 13.456C10.3249 13.3958 10.3498 13.3371 10.3792 13.2805L10.5173 13.0537C10.5646 12.9811 10.6233 12.9164 10.6914 12.8619C10.8294 12.7412 10.9911 12.6493 11.1667 12.5919C11.2966 12.5472 11.4309 12.5155 11.5674 12.4974C11.7972 12.4772 12.0284 12.4772 12.2583 12.4974C12.3352 12.5085 12.4127 12.5157 12.4904 12.519C12.5097 12.7734 12.5097 13.0288 12.4904 13.2832C12.4766 13.3696 12.4683 13.4398 12.4489 13.5181C12.3919 13.7974 12.271 14.0605 12.0952 14.2877C11.6862 14.7738 11.1529 14.9223 10.4704 14.9223C10.429 15 10.393 15.0803 10.3626 15.1627C10.346 15.2167 10.3377 15.2518 10.3211 15.3031C10.3028 15.3483 10.2898 15.3954 10.2824 15.4435C10.296 15.5353 10.3182 15.6257 10.3488 15.7135C10.3803 15.8103 10.4026 15.9097 10.4151 16.0106H10.6002C10.8035 16.0159 11.0021 16.0715 11.1775 16.1721C11.3529 16.2726 11.4994 16.415 11.6033 16.5858C11.6819 16.701 11.7329 16.8321 11.7526 16.9692C11.8901 16.9566 12.0288 16.9743 12.1584 17.021C12.288 17.0678 12.4053 17.1423 12.5014 17.2393C12.6706 17.4154 12.7637 17.6485 12.7612 17.89H6.7757C6.73699 17.7007 6.76019 17.5042 6.84203 17.3284L6.96638 17.1447V17.1285L6.99401 17.0988L7.09626 17.0178C7.21583 16.9297 7.35759 16.8749 7.50647 16.8592C7.65536 16.8435 7.80581 16.8675 7.94185 16.9287C8.02258 16.9685 8.09936 17.0155 8.17121 17.0691C8.23831 16.9946 8.31771 16.9317 8.4061 16.8828C8.6633 16.7321 8.96893 16.6811 9.26275 16.7397C9.31953 16.7573 9.37779 16.7699 9.43684 16.7775C9.45596 16.7064 9.48878 16.6395 9.53356 16.5804L9.66621 16.4048C9.70406 16.3716 9.73918 16.3355 9.77122 16.2968C9.75389 15.9423 9.70488 15.5899 9.62476 15.2437C9.57973 15.0311 9.51688 14.8224 9.43684 14.6199C9.3991 14.5213 9.35573 14.4248 9.30697 14.3309C8.59954 14.3309 8.10213 14.2742 7.51076 13.8908C7.27149 13.729 7.06841 13.5214 6.91387 13.2805C6.60875 12.7994 6.45234 12.2424 6.46344 11.6765C6.46344 11.5279 6.46344 11.3443 6.46344 11.2012C6.47279 11.1286 6.47832 11.0556 6.48002 10.9825C6.66793 10.9825 6.8365 10.9392 7.0327 10.9392C7.3377 10.9315 7.64281 10.9496 7.94462 10.9933C8.31052 11.0458 8.65566 11.1921 8.94496 11.4172C9.04832 11.4955 9.14117 11.5863 9.2213 11.6873C9.51778 12.1186 9.69224 12.6189 9.727 13.1374C9.65792 13.1185 9.45066 12.8322 9.34565 12.762C9.29881 12.7243 9.25451 12.6837 9.21301 12.6405C9.03769 12.4752 8.84713 12.326 8.64375 12.1949C8.53875 12.1247 8.44203 12.068 8.32873 12.0005C8.02035 11.8244 7.69206 11.684 7.35049 11.5819L7.23995 11.5522L7.23443 11.563Z" fill="#66BA46"/>
<path fill-rule="evenodd" clip-rule="evenodd" d="M11.6336 16.5749C11.7121 16.6902 11.7631 16.8212 11.7828 16.9584C11.9204 16.9458 12.0591 16.9635 12.1887 17.0102C12.3183 17.0569 12.4355 17.1315 12.5317 17.2284C12.7009 17.4045 12.794 17.6377 12.7915 17.8792H6.77558C6.73687 17.6898 6.76007 17.4933 6.84191 17.3175L6.96626 17.1339V17.1177L6.99389 17.088L7.09614 17.007C7.21571 16.9189 7.35747 16.8641 7.50635 16.8484C7.65524 16.8327 7.80569 16.8567 7.94173 16.9179C8.02246 16.9577 8.09924 17.0047 8.17109 17.0583C8.23819 16.9838 8.31759 16.9208 8.40598 16.872C8.66318 16.7213 8.96881 16.6702 9.26263 16.7288C9.31941 16.7464 9.37767 16.7591 9.43672 16.7667C9.45583 16.6955 9.48866 16.6286 9.53344 16.5695L9.66609 16.394C9.70394 16.3607 9.73906 16.3246 9.7711 16.286C9.96355 16.139 10.1906 16.0416 10.4315 16.0024H10.6167C10.8221 16.0052 11.0233 16.0593 11.2013 16.1595C11.3793 16.2597 11.5281 16.4027 11.6336 16.5749Z" fill="#754329"/>
<path fill-rule="evenodd" clip-rule="evenodd" d="M16.4586 14.9682C16.4549 14.8143 16.4185 14.6629 16.3519 14.5234C16.2853 14.384 16.1899 14.2595 16.0717 14.1578C15.9534 14.0561 15.8149 13.9795 15.6649 13.9326C15.5149 13.8858 15.3565 13.8698 15.1999 13.8857C15.0432 13.9016 14.8916 13.949 14.7546 14.0249C14.6176 14.1009 14.4982 14.2037 14.4039 14.3269C14.3095 14.4502 14.2423 14.5912 14.2064 14.741C14.1705 14.8909 14.1668 15.0464 14.1954 15.1977C14.632 19.4509 15.5108 21.225 14.1678 22.262C12.7447 23.3556 12.145 22.6751 7.40579 22.3268C7.25665 22.3158 7.10674 22.3336 6.96464 22.3792C6.82254 22.4248 6.69103 22.4974 6.57761 22.5926C6.46419 22.6879 6.37109 22.8041 6.30362 22.9346C6.23614 23.065 6.19563 23.2072 6.18438 23.3529C6.17313 23.4987 6.19137 23.6452 6.23805 23.784C6.28473 23.9229 6.35895 24.0514 6.45646 24.1622C6.55397 24.2731 6.67286 24.364 6.80636 24.43C6.93985 24.4959 7.08532 24.5355 7.23447 24.5465C12.5512 24.938 14.6956 25.3161 16.6963 23.7742C18.7716 22.1567 16.9809 20.0584 16.4586 14.9682Z" fill="#BD7A68"/>
<path d="M13.7201 17.8766H5.77539V19.1539H13.7201V17.8766Z" fill="#333333"/>
<path fill-rule="evenodd" clip-rule="evenodd" d="M13.09 19.1538H6.23682V21.8758C6.23755 22.258 6.39325 22.6244 6.66983 22.8947C6.94641 23.1649 7.32132 23.3171 7.71246 23.3178H11.6116C12.003 23.3171 12.3782 23.165 12.6552 22.8948C12.9322 22.6246 13.0886 22.2583 13.09 21.8758V19.1538Z" fill="#666666"/>
<path fill-rule="evenodd" clip-rule="evenodd" d="M19.9435 26.6988C19.9363 26.3736 19.8092 26.062 19.5857 25.8211C19.3622 25.5802 19.0572 25.4262 18.7268 25.3874C18.3964 25.3487 18.0628 25.4278 17.7873 25.6101C17.5117 25.7925 17.3128 26.0659 17.2271 26.3801C17.2271 26.3801 17.0972 27.2847 16.6191 31.9861C17.5566 31.9519 18.489 31.8344 19.4046 31.6351C19.8302 27.463 19.9407 26.7069 19.9435 26.6988Z" fill="#BD7A68"/>
<path fill-rule="evenodd" clip-rule="evenodd" d="M20.8637 26.6988C20.9428 26.1122 20.7803 25.519 20.4118 25.0495C20.0434 24.5801 19.4991 24.2729 18.8989 24.1955C18.2987 24.1182 17.6916 24.277 17.2112 24.6371C16.7307 24.9972 16.4164 25.529 16.3372 26.1155C16.3372 26.1155 16.1991 27.0661 15.7017 31.997H16.0001C17.4705 31.9983 18.9338 31.7974 20.3469 31.4002C20.7062 27.9356 20.8637 26.7015 20.8637 26.6988Z" fill="#026C8C"/>
<path fill-rule="evenodd" clip-rule="evenodd" d="M18.111 3.50513H14.748C14.3952 3.50655 14.0572 3.64414 13.8077 3.88793C13.5583 4.13171 13.4175 4.46195 13.416 4.80672V10.1319C13.4182 10.7278 13.6614 11.2987 14.0926 11.7201C14.5239 12.1415 15.1081 12.3792 15.7179 12.3813H16.8426C17.7505 12.3785 18.6204 12.0248 19.2624 11.3974C19.9043 10.7701 20.2663 9.92002 20.2692 9.03282V5.61143C20.2678 5.05278 20.0398 4.51745 19.6353 4.12267C19.2308 3.7279 18.6827 3.50584 18.111 3.50513Z" fill="#FEBD93"/>
<path fill-rule="evenodd" clip-rule="evenodd" d="M13.7782 5.23333L18.5008 7.1236L18.0891 6.20276L19.2276 7.28292L19.5039 8.81944L20.7723 7.8284L21.2946 5.41155L22.2397 4.89038L21.7782 4.70135L23.0134 3.96954L21.8777 3.87503L22.8448 3.28365C22.8448 3.28365 15.9364 2.50053 14.6348 2.76247C13.3333 3.02441 13.0376 4.11266 13.0376 4.74995C13.0703 5.23298 13.1929 5.70611 13.3996 6.14605C13.3996 6.14605 13.7975 5.24143 13.7782 5.23333Z" fill="#343333"/>
<path fill-rule="evenodd" clip-rule="evenodd" d="M20.3276 7.71765C20.1478 7.71765 19.972 7.76976 19.8225 7.86738C19.673 7.965 19.5565 8.10375 19.4877 8.26609C19.4189 8.42843 19.4008 8.60706 19.4359 8.7794C19.471 8.95174 19.5576 9.11004 19.6847 9.23429C19.8119 9.35854 19.9739 9.44316 20.1502 9.47744C20.3266 9.51172 20.5094 9.49412 20.6755 9.42688C20.8417 9.35963 20.9836 9.24576 21.0835 9.09966C21.1834 8.95356 21.2368 8.78179 21.2368 8.60608C21.2368 8.37045 21.141 8.14448 20.9705 7.97787C20.8 7.81125 20.5687 7.71765 20.3276 7.71765Z" fill="#FEBD93"/>
<path d="M16.8041 7.6529C16.8041 7.49928 16.6767 7.37476 16.5195 7.37476C16.3623 7.37476 16.2349 7.49928 16.2349 7.6529V7.97154C16.2349 8.12516 16.3623 8.24968 16.5195 8.24968C16.6767 8.24968 16.8041 8.12516 16.8041 7.97154V7.6529Z" fill="#343333"/>
<path d="M14.1816 7.6529C14.1816 7.49928 14.0541 7.37476 13.8969 7.37476C13.7397 7.37476 13.6123 7.49928 13.6123 7.6529V7.97154C13.6123 8.12516 13.7397 8.24968 13.8969 8.24968C14.0541 8.24968 14.1816 8.12516 14.1816 7.97154V7.6529Z" fill="#343333"/>
<path fill-rule="evenodd" clip-rule="evenodd" d="M14.613 9.33524C14.613 9.2758 14.5889 9.21879 14.5459 9.17676C14.5028 9.13472 14.4445 9.11111 14.3837 9.11111C14.3228 9.11111 14.2645 9.13472 14.2215 9.17676C14.1785 9.21879 14.1543 9.2758 14.1543 9.33524C14.1527 9.5606 14.2319 9.77941 14.3782 9.95363C14.448 10.0402 14.537 10.1101 14.6385 10.1582C14.7399 10.2063 14.8512 10.2312 14.964 10.2312C15.0768 10.2312 15.1881 10.2063 15.2895 10.1582C15.391 10.1101 15.48 10.0402 15.5498 9.95363C15.6961 9.77941 15.7753 9.5606 15.7737 9.33524C15.7772 9.30393 15.7739 9.27224 15.7641 9.24224C15.7542 9.21223 15.738 9.1846 15.7165 9.16113C15.695 9.13767 15.6687 9.11889 15.6392 9.10604C15.6098 9.09319 15.5779 9.08655 15.5457 9.08655C15.5134 9.08655 15.4816 9.09319 15.4521 9.10604C15.4227 9.11889 15.3964 9.13767 15.3748 9.16113C15.3533 9.1846 15.3371 9.21223 15.3273 9.24224C15.3174 9.27224 15.3142 9.30393 15.3177 9.33524C15.3207 9.45592 15.2795 9.57368 15.2016 9.66739C15.1745 9.7042 15.1388 9.73417 15.0975 9.75484C15.0562 9.77552 15.0104 9.7863 14.964 9.7863C14.9176 9.7863 14.8718 9.77552 14.8305 9.75484C14.7892 9.73417 14.7535 9.7042 14.7263 9.66739C14.6505 9.57276 14.6105 9.45541 14.613 9.33524Z" fill="#343333"/>
<path fill-rule="evenodd" clip-rule="evenodd" d="M20.2392 12.3867L23.8648 12.2867C23.8648 12.2867 25.4372 20.6174 25.5228 23.7877C25.6085 26.9579 23.5885 28.6646 21.0683 28.7591C18.5481 28.8536 16.7574 28.0003 16.1771 23.2206C15.5968 18.4409 14.7705 13.8962 14.7705 13.8962L17.6638 12.6864L20.2392 12.3867Z" fill="#026C8C"/>
<path fill-rule="evenodd" clip-rule="evenodd" d="M19.7636 10.7745L20.3163 12.6891C20.3575 12.837 20.3666 12.9916 20.343 13.143C20.3194 13.2945 20.2636 13.4395 20.1793 13.5686C20.095 13.6978 19.984 13.8083 19.8534 13.8931C19.7228 13.9779 19.5755 14.035 19.421 14.0609C18.2327 14.3309 17.9205 13.4938 17.763 13.0672C17.676 12.8172 17.615 12.5594 17.5806 12.2976L19.7636 10.7745Z" fill="#FEBD93"/>
<path fill-rule="evenodd" clip-rule="evenodd" d="M25.5253 23.7878C25.622 26.9607 23.5909 28.6647 21.0707 28.7592C18.8434 28.8429 17.1826 28.184 16.4282 24.7086L25.5198 23.5798C25.5253 23.6608 25.5253 23.7257 25.5253 23.7878Z" fill="#00ACED"/>
<path fill-rule="evenodd" clip-rule="evenodd" d="M23.7266 26.6988C23.7194 26.3736 23.5924 26.062 23.3688 25.8211C23.1453 25.5802 22.8403 25.4262 22.5099 25.3874C22.1795 25.3487 21.8459 25.4278 21.5704 25.6101C21.2949 25.7925 21.0959 26.0659 21.0102 26.3801C21.0102 26.3801 20.8914 27.1902 20.4575 31.3677C21.4502 31.0801 22.4111 30.6966 23.3259 30.2228C23.6409 27.2847 23.7266 26.7069 23.7266 26.6988Z" fill="#FEBD93"/>
<path fill-rule="evenodd" clip-rule="evenodd" d="M24.6495 26.6988C24.7084 26.1216 24.5352 25.5447 24.1665 25.0901C23.7978 24.6355 23.2626 24.339 22.6741 24.2632C22.0856 24.1874 21.49 24.3383 21.0134 24.684C20.5367 25.0298 20.2165 25.5431 20.1203 26.1155C20.1203 26.1155 19.9904 27.0148 19.5234 31.6108C21.2185 31.2292 22.8369 30.5749 24.3124 29.6747C24.5445 27.5143 24.6468 26.7015 24.6495 26.6988Z" fill="#00ACED"/>
<path fill-rule="evenodd" clip-rule="evenodd" d="M22.6156 30.5739L23.1268 24.7032C23.1299 24.6739 23.1269 24.6443 23.1181 24.6161C23.1093 24.588 23.0948 24.5618 23.0755 24.5392C23.0562 24.5165 23.0324 24.4979 23.0057 24.4843C22.9789 24.4708 22.9496 24.4626 22.9196 24.4602C22.8592 24.4557 22.7994 24.4748 22.7533 24.5132C22.7072 24.5517 22.6786 24.6064 22.6736 24.6654L22.1375 30.7791C22.2978 30.7143 22.4581 30.6441 22.6156 30.5739ZM21.4909 31.0329L22.0436 24.5952C22.0484 24.5648 22.0468 24.5338 22.0389 24.504C22.0309 24.4743 22.0168 24.4464 21.9974 24.4222C21.9779 24.3981 21.9536 24.378 21.9259 24.3634C21.8982 24.3488 21.8677 24.34 21.8364 24.3374C21.805 24.3348 21.7734 24.3385 21.7436 24.3483C21.7138 24.3582 21.6864 24.3739 21.663 24.3945C21.6397 24.4152 21.621 24.4403 21.608 24.4683C21.595 24.4963 21.5881 24.5267 21.5876 24.5574L21.0073 31.195C21.175 31.1518 21.3362 31.0977 21.4909 31.0329Z" fill="white"/>
<path d="M18.3149 16.9097L19.3026 16.7979C19.3026 16.7979 19.5672 16.7847 19.8454 17.293C20.1235 17.8014 20.2742 17.9529 20.6772 17.9103C20.479 18.4387 20.2681 19.1512 20.2681 19.1512C20.2429 19.1852 20.2104 19.2132 20.1731 19.2333C20.1357 19.2534 20.0944 19.2649 20.0521 19.2672C19.9734 19.275 19.8942 19.2577 19.8259 19.2179L18.3149 16.9097Z" fill="white"/>
<path d="M20.7344 17.7672C21.0672 17.7295 21.3064 17.4292 21.2688 17.0965C21.2311 16.7638 20.9308 16.5245 20.5981 16.5622C20.2653 16.5998 20.0261 16.9001 20.0638 17.2329C20.1014 17.5656 20.4017 17.8048 20.7344 17.7672Z" fill="white"/>
<path d="M17.8589 20.3609L18.0051 19.6927L18.2081 19.6697L18.0088 20.5054L17.7278 20.5372L17.348 19.767L17.5498 19.7442L17.8417 20.3628L17.8589 20.3609ZM18.5043 19.786C18.7004 19.7638 18.8751 19.8498 18.9004 20.0734C18.926 20.2994 18.7745 20.4187 18.5784 20.4409C18.3834 20.463 18.2088 20.377 18.1836 20.1545C18.1586 19.9332 18.3093 19.8081 18.5043 19.786ZM18.5605 20.2826C18.6706 20.2702 18.7426 20.2086 18.7295 20.0928C18.716 19.9735 18.6325 19.933 18.5224 19.9454C18.4134 19.9578 18.3407 20.0136 18.3545 20.1352C18.3681 20.2556 18.4516 20.295 18.5605 20.2826ZM19.1655 20.3745L18.9923 20.3941L18.899 19.5695L19.0721 19.5499L19.1655 20.3745ZM19.657 19.6672L19.8313 19.6475L19.9041 20.2909L19.7298 20.3106L19.7192 20.2166L19.7111 20.2175C19.6763 20.2795 19.622 20.3228 19.5062 20.3359C19.2344 20.3667 19.2018 20.1404 19.1911 20.0463L19.1547 19.724L19.3278 19.7045L19.3643 20.0267C19.37 20.0772 19.3723 20.2001 19.5398 20.1811C19.69 20.1641 19.702 20.0652 19.6922 19.978L19.657 19.6672ZM20.2918 19.5954C20.5637 19.5646 20.5964 19.7921 20.607 19.8861L20.6434 20.2072L20.4702 20.2268L20.4338 19.9057C20.4281 19.8552 20.4247 19.7325 20.2584 19.7513C20.107 19.7684 20.0961 19.8673 20.106 19.9544L20.141 20.2641L19.9667 20.2838L19.8939 19.6404L20.0682 19.6207L20.079 19.7159L20.087 19.715C20.1218 19.6529 20.176 19.6085 20.2918 19.5954ZM20.8711 19.6808L20.8969 19.909L20.8985 19.9228C20.909 20.0157 20.9489 19.9984 21.1153 19.9703L21.1345 20.14C21.1345 20.14 21.1014 20.1554 20.927 20.1751C20.7516 20.195 20.7353 20.0516 20.7248 19.9587L20.6956 19.7007L20.6108 19.7103L20.5941 19.5635L20.679 19.5539L20.658 19.3681L20.8335 19.3482L20.8545 19.534L21.0632 19.5104L21.0798 19.6572L20.8711 19.6808ZM21.8045 19.7912L21.2907 19.8494C21.313 19.934 21.3695 19.9706 21.4818 19.9579C21.5862 19.946 21.6346 19.9115 21.6458 19.8673L21.8144 19.8482C21.8129 19.9889 21.7101 20.0865 21.4991 20.1104C21.2789 20.1353 21.1414 20.0394 21.1172 19.8249C21.0934 19.615 21.2089 19.4858 21.4257 19.4612C21.5163 19.451 21.5923 19.4656 21.6504 19.4974L21.6503 19.4962C21.7838 19.5671 21.8106 19.7011 21.8114 19.7905L21.8045 19.7912ZM21.4429 19.6138C21.3466 19.6247 21.2978 19.6662 21.2846 19.7339L21.6241 19.6955C21.6049 19.6489 21.5668 19.5998 21.4429 19.6138ZM22.5471 19.7072L22.0333 19.7654C22.0556 19.8499 22.112 19.8865 22.2244 19.8738C22.3288 19.862 22.3771 19.8275 22.3884 19.7832L22.557 19.7642C22.5555 19.9049 22.4527 20.0025 22.2417 20.0264C22.0215 20.0513 21.884 19.9553 21.8597 19.7409C21.836 19.531 21.9515 19.4017 22.1682 19.3772C22.2588 19.367 22.3348 19.3816 22.393 19.4133L22.3929 19.4122C22.5263 19.483 22.5531 19.6171 22.5539 19.7064L22.5471 19.7072ZM22.1855 19.5298C22.0891 19.5407 22.0404 19.5822 22.0272 19.6499L22.3666 19.6115C22.3474 19.5649 22.3093 19.5157 22.1855 19.5298ZM22.9367 19.2961C22.9826 19.2909 23.0216 19.2969 23.0522 19.3004L23.0432 19.4675C23.0266 19.4648 22.9809 19.4607 22.9258 19.4669C22.7962 19.4815 22.7698 19.5868 22.7797 19.6739L22.8122 19.9618L22.6379 19.9815L22.5651 19.3381L22.7394 19.3184L22.7502 19.4136L22.7605 19.4124C22.7902 19.3463 22.8254 19.3087 22.9367 19.2961ZM23.3207 19.9043L23.1475 19.9238L23.0752 19.285L23.2484 19.2654L23.3207 19.9043ZM23.2432 19.2196L23.07 19.2392L23.0524 19.0832L23.2256 19.0636L23.2432 19.2196ZM23.7079 19.2088C23.9797 19.178 24.0124 19.4055 24.023 19.4995L24.0594 19.8207L23.8862 19.8403L23.8499 19.5191C23.8442 19.4687 23.8407 19.3459 23.6744 19.3647C23.523 19.3819 23.5121 19.4807 23.522 19.5678L23.557 19.8775L23.3827 19.8972L23.3099 19.2538L23.4842 19.2341L23.495 19.3293L23.503 19.3284C23.5378 19.2664 23.592 19.2219 23.7079 19.2088ZM24.224 19.802C24.1678 19.8084 24.1167 19.7677 24.1104 19.7115C24.1039 19.6542 24.1446 19.6031 24.2008 19.5967C24.2581 19.5902 24.3092 19.6309 24.3157 19.6883C24.322 19.7445 24.2813 19.7955 24.224 19.802Z" fill="white"/>
<path fill-rule="evenodd" clip-rule="evenodd" d="M24.6327 13.483C24.6142 13.196 24.4832 12.9271 24.2669 12.732C24.0507 12.537 23.7659 12.4308 23.4716 12.4357C23.1774 12.4406 22.8964 12.5561 22.687 12.7581C22.4776 12.9602 22.356 13.2334 22.3474 13.5208C22.4303 17.7956 22.0075 20.0666 20.5816 20.9901C19.0728 21.9704 16.2044 21.7705 11.5094 21.0495C11.3583 21.0192 11.2025 21.0192 11.0514 21.0493C10.9003 21.0795 10.757 21.1393 10.6302 21.2251C10.5034 21.3109 10.3957 21.421 10.3136 21.5486C10.2316 21.6762 10.1768 21.8188 10.1527 21.9677C10.1286 22.1165 10.1356 22.2686 10.1733 22.4148C10.2111 22.5609 10.2787 22.6981 10.3722 22.818C10.4657 22.9379 10.5831 23.038 10.7173 23.1123C10.8515 23.1866 10.9997 23.2336 11.153 23.2503C16.42 24.0605 19.7195 24.2279 21.8473 22.8453C24.058 21.4087 24.7322 18.5922 24.6327 13.483Z" fill="#FEBD93"/>
</svg>
