<svg width="180" height="163" viewBox="0 0 180 163" fill="none" xmlns="http://www.w3.org/2000/svg">
<path d="M0 5.48001H61.27C61.27 5.48001 77.61 6.48001 91.15 39.48C104.69 72.48 112.89 82.84 137.89 83.1C122.06 113.99 104.19 156.37 104.19 156.37C102.403 158.279 100.218 159.772 97.7904 160.743C95.3624 161.715 92.7507 162.14 90.14 161.99C81.21 161.48 76.61 157.39 76.61 157.39L0 5.48001Z" fill="white"/>
<path d="M142.46 74.84C163.127 74.84 179.88 58.0865 179.88 37.42C179.88 16.7535 163.127 0 142.46 0C121.794 0 105.04 16.7535 105.04 37.42C105.04 58.0865 121.794 74.84 142.46 74.84Z" fill="white"/>
</svg>
