<svg width="125" height="100" viewBox="0 0 125 100" fill="none" xmlns="http://www.w3.org/2000/svg">
<path d="M58.5227 33.5227L46.5909 21.5909C45.4545 20.4545 44.8864 19.1288 44.8864 17.6136C44.8864 16.0985 45.4545 14.7727 46.5909 13.6364L58.5227 1.70454C59.6591 0.568181 60.9848 0 62.5 0C64.0151 0 65.3409 0.568181 66.4773 1.70454L78.4091 13.6364C79.5454 14.7727 80.1136 16.0985 80.1136 17.6136C80.1136 19.1288 79.5454 20.4545 78.4091 21.5909L66.4773 33.5227C65.3409 34.6591 64.0151 35.2273 62.5 35.2273C60.9848 35.2273 59.6591 34.6591 58.5227 33.5227ZM5.68182 100C4.07197 100 2.72348 99.4545 1.63636 98.3636C0.549242 97.2727 0.00378788 95.9242 0 94.3182V77.2727C0 74.053 1.11364 71.3541 3.34091 69.1761C5.56818 66.9981 8.24242 65.9091 11.3636 65.9091H29.9716C31.8655 65.9091 33.6648 66.3826 35.3693 67.3295C37.0739 68.2765 38.447 69.5549 39.4886 71.1648C42.2348 74.8579 45.6212 77.7462 49.6477 79.8295C53.6742 81.9129 57.9583 82.9545 62.5 82.9545C67.1401 82.9545 71.4735 81.9129 75.5 79.8295C79.5265 77.7462 82.8636 74.8579 85.5113 71.1648C86.7424 69.5549 88.1875 68.2765 89.8466 67.3295C91.5057 66.3826 93.2329 65.9091 95.0284 65.9091H113.636C116.856 65.9091 119.555 66.9981 121.733 69.1761C123.911 71.3541 125 74.053 125 77.2727V94.3182C125 95.928 124.455 97.2784 123.364 98.3693C122.273 99.4602 120.924 100.004 119.318 100H90.9091C89.2992 100 87.9507 99.4545 86.8636 98.3636C85.7765 97.2727 85.2311 95.9242 85.2273 94.3182V87.0739C81.9129 89.4413 78.3371 91.2405 74.5 92.4716C70.6629 93.7026 66.6629 94.3182 62.5 94.3182C58.428 94.3182 54.4507 93.6799 50.5682 92.4034C46.6856 91.1269 43.0871 89.303 39.7727 86.9318V94.3182C39.7727 95.928 39.2273 97.2784 38.1364 98.3693C37.0454 99.4602 35.697 100.004 34.0909 100H5.68182ZM17.0455 60.2273C12.3106 60.2273 8.28598 58.5701 4.97159 55.2557C1.6572 51.9413 0 47.9167 0 43.1818C0 38.3523 1.6572 34.3049 4.97159 31.0398C8.28598 27.7746 12.3106 26.1401 17.0455 26.1364C21.875 26.1364 25.9242 27.7708 29.1932 31.0398C32.4621 34.3087 34.0947 38.3561 34.0909 43.1818C34.0909 47.9167 32.4583 51.9413 29.1932 55.2557C25.928 58.5701 21.8788 60.2273 17.0455 60.2273ZM107.955 60.2273C103.22 60.2273 99.1951 58.5701 95.8807 55.2557C92.5663 51.9413 90.9091 47.9167 90.9091 43.1818C90.9091 38.3523 92.5663 34.3049 95.8807 31.0398C99.1951 27.7746 103.22 26.1401 107.955 26.1364C112.784 26.1364 116.833 27.7708 120.102 31.0398C123.371 34.3087 125.004 38.3561 125 43.1818C125 47.9167 123.367 51.9413 120.102 55.2557C116.837 58.5701 112.788 60.2273 107.955 60.2273Z" fill="#164D63"/>
</svg>
